<?xml version="1.0" encoding="UTF-8"?>
<svg id="Ebene_1" data-name="Ebene 1" xmlns="http://www.w3.org/2000/svg" version="1.1" viewBox="0 0 1920 713.5">
  <defs>
    <style>
      .cls-1 {
        fill: #000;
        stroke-width: 0px;
      }
    </style>
  </defs>
  <path class="cls-1" d="M776.2,122c-.2-7.1,0-45.7,0-57.9s-21.9-9.4-27.2-10.3c-12.2-2.3-43-5.9-45.9-6.2-6.4-.7-6.5-10.2-1.6-11.6,2-.5,79.6-.8,111-.8s106.3-2.6,119.5-6.9c32.4-10.6,65.9-12.7,99.8-10.4,27,1.9,52.9,8.9,78.8,15.8,23,6.1,46,12.3,69.6,15.7,11.6,1.7,23.3,2.7,35,3.2,24.2,1,48.4-.4,72.6-1.5,35.2-1.5,70.4-.9,105.6-.7,30.3.2,86.6.9,99.8.9s12,12.6.5,14.6-32-1.8-50.6,42.7c-14.9,35.6-51.3,121-54.1,128.3,7,3.7,48.2,16,87.4,24.9,29.1,6.7,58.5,12,88.6,18.1.6-.9,61.2-158.8,63.3-167.6,5.3-17-9.6-30.8-12.5-32.9-17-13.7-60.4-11.9-72.1-12.9-7.9-.7-27.2-1.3-28.7-1.4-7.2-.4-9.5-12.7-1-13.8,6.7-.8,12.9-.8,17.4-.8,15.9,0,28.7-.2,45.7,0,16.3.2,30.9-.4,46.4,0,26.5.7,52.8-.3,79.3,0,12.1,0,40.1.8,66.9,2.6,140.1,9.3,129.1,127.8,110.9,166-10.6,22.5-27.5,50.8-95.4,77.5-51.5,20.3-121.4,28-197,16.5-10.2,30.9-95.2,279.6-144.1,373.6-7.6,14.6-18.1,16.5-24.9,1-23.9-54.5-88.6-239.1-93.5-238.8-6-.1-102.4,238.5-108.1,247.1-4.7,7-13.9,7.6-17.9-1.8-5.1-11.7-17-42.4-23.5-59-4.6-11.6-132.3-343.3-153.8-382-21.4-38.4-65.9-61.1-76.7-68.2-55.3-36.3-64.4-67.9-68.1-92.6-.5-3.3-.6-5.7-1.6-9.5-.9-3.4-7.3-2.9-7.5.9-1.2,18.2-1.6,33.7-1.2,52.8,0,2.6,4.5,4.3,6.7,5.6,13.8,8.2,25.5,19,35.9,31.1,12.1,14.1,23.2,28.9,32.6,45,7.4,12.7,15.1,25.4,22.1,38.4,6.1,11.3,39.7,85.8,48.2,112.5,11.7,36.7,24.8,73.1,34.8,110.3,8.9,33.2,17.5,66.6,26.5,99.8,4.5,16.4,20.2,75.4,23,86,.4,1.5.9,2.9,1.2,4.4,1.8,9.9,3.3,15.5-15.9,15.5h-69.1c-33.8,0-68.9-.7-102.2-.4-45.4.4-90.8.6-136.2.3-20,0-94.4,0-106.4,0s-8.4-10.9-3.2-12.4c20.9-5.8,85.7-16.5,94.6-19.8,6.4-2.4,10.5-6.8,12.5-13.6,2.3-8.1,3.8-16.2,3.9-24.6,0-26.9,0-53.7,0-80.6,0-11.4,0-22.7-.4-34.1-.5-18.1,2.6-350.8.6-354.1-19.8,3.2-76.8,31.2-100.5,48.3.9,2.9,38.5,72,36.8,194.2-.3,23.6-.2,111.4-78.6,203.1-14.5,16.9-86.2,91.4-268.4,93.5-24.6.3-171.1-.4-202.1,0-1.5,0-3,0-4.5,0-23.4-1-28.7-13.4,4.8-17.7,28.4-4,64.3-3.4,81.6-13.9,13.7-8.3,13.6-26,13.5-36.7-.1-20.2.2-26.6-.1-43.6-.6-29.9.2-60.5,0-90.4-.4-49.2.3-97.8,0-147-.1-18.9,0-38,0-57.3s-1.6-5.8-7.4-6.8c-53.9-9.2-113.3-30.7-138.4-44.8-12.9-7.2-25.9-14.3-37.7-23.1-40.1-30.1-48.8-74-45.6-93.5,2.1-12.5,5.6-24.2,12.8-34.9,5.3-8.4,12.4-15,20.8-20.3,13-8.2,27.4-12.8,42.4-15.4,19.8-3.4,175.6-3,197.2-2.9,34.1.2,68.1,0,102.2.4,158.8,1.3,204,59.6,219.8,75.7,15,15.3,38.8,59,42.6,61.6,11.9-6.4,23.7-13.1,35.7-19.2,12.5-6.4,25-12.7,37.8-18.2,12.5-5.4,22-10.1,35.1-15.1ZM339.7,282.3c-.1,2.8.1,4.1.1,5.9-.2,19.3-.2,38.6,0,57.9.2,17.4.1,153.5.2,204.3,0,29.1-.4,48.9-.2,82.3,0,6.1,0,6.8,5.7,6.8,203.5-7.1,243.2-98.2,254.6-119.6,16.1-30.5,24.9-63.2,28.1-97.5,10-104.7-10.8-192.3-11.9-194-6.4,3.9-47.1,31.9-103.1,45.8-43.7,11-137.6,8.3-173.5,8.1ZM867.3,155.4c0,5.2-.4,9.2-.4,13.3,0,57.5,0,115,0,172.5,0,24.6.4,49.2.8,73.8.3,17.4,1.1,34.7,1.4,52.1.5,29.9,0,59.7,1.9,89.6,1.6,22.6,2,45.3,3,68,0,3.4.3,6.8.9,10.1,2.5,12.3,9.6,18,22.2,18.1,23.5,0,77.7,3.2,106.2-6.1,21.6-7.1,21.3-43.2,21.4-52.7,5.9-93.2-26.2-209.5-39.8-249.3-10.6-31.2-22.4-61.8-38.8-90.5-7.3-12.8-14.8-25.5-22.5-38.1-7.9-12.9-17.4-24.8-27.4-36.1-7-8-14.6-15.4-23.3-21.5-1.3-1.2-3-1.9-5.6-3.2ZM1596.2,284.1c110,17.7,198.7-20.3,219.4-33,52.8-31.9,93.5-159.4-66.8-178.9-24.2-4.3-37.7,0-55.5,7.3-4.4,1.8-8.4,5.1-11.8,8.5s-6.4,7.5-8.7,11.8c-5.9,11-11.8,22-16.7,33.5-8.3,19.5-15.6,39.3-23.5,59-11.9,29.3-36.2,90.2-36.4,91.8ZM609.4,207.1c-.3-1.6-.4-2.8-.8-3.7-9.8-22.7-37.3-129.5-177-129.5-29-2.8-88.9-2-91.9-1.7-.1,2.8-.1,126.8-.1,172.9v14.3c10.8.9,122.6,7.8,168-3.5,79.8-21.9,99.2-47.4,101.8-48.8ZM1225.5,211.3c-.4-2.4-.5-4.3-1.2-6-8.1-22.8-39-100.6-48.6-115.7-2.1-3.3-4.2-6.3-7.8-8-86.8-33.4-194-43-236.6-8-19.6,21.2-26,77.8,150.9,124.4,15,3.9,30.5,5.4,45.9,6.9,16.5,1.7,93.9,6.4,97.4,6.4ZM257.2,247.9c1-1.3,1.5-6.7,1.5-9.6-.5-29.5,0-57.3,0-88.5.5-10.6,0-18,0-31-.6-8.4.5-35.8-2.5-43.6-9.3-24.3-105.5-20.1-131.2-19.3-14.5.4-28.3,4.5-40.9,12.1-11.4,6.7-24.6,18.1-27.3,31-1.5,7.4-24.6,69.9,77.6,114,47.4,21.7,121.8,36.2,122.8,34.9ZM1109.3,237.2c1.3,3.9,1.9,6.1,2.8,8.1,10,23.7,20.1,47.3,30.2,71,12.4,29.2,91,210.5,95.4,216.7,2.9,4,6.5,3.8,9.3,0,10-13.7,46-96,53.7-114.5,1.9-4.5,2.3-8.7.7-13.2-2.6-7.5-49.8-126.2-58.7-149.9-1.9-5.1-4.6-6.9-9.9-7.2-23.5-1.9-87.2-8.7-111.8-9.8-3.3-.7-6.7-.6-11.7-1.1ZM1460.8,537c24.1,0,93.9-228.9,94-230.3-14.2-3-29.5-6-43.5-9.2-34.9-8.1-69.8-16.5-104.7-24.8-8.1-1.9-16.2-3.9-24.3-5.6-4.2-.9-5.9-.1-7.2,3.5-5.2,14-8.8,28.1-4.7,43.2,2.8,10.2,40.1,124.5,51.2,153.4,6.3,16.2,25.6,69.8,39.2,69.8ZM1372,73.9s-59.7,1.9-80.4,2.3c-.4,0-.8,0-1.1,0-12,1.3-15.6,6.4-13.4,18.2,2.7,15,45.2,114,49.3,124.1,1.6,4.1,4.1,6.7,8.8,7.6,8.2,1.5,16.2,3.9,24.3,5.7,5.5,1.2,6.6.6,8.7-4.4,3.2-7.7,6.3-15.4,9.4-23.1,10.8-27,21.5-54.1,32.2-81.1,5.6-14,11.4-28,16.9-42.1,2-5.1.7-7.2-4.7-7.2-16.7-.2-33.4-.1-50-.1ZM1349.3,280.5c2.1-3.9,4.6-16.6,2.7-19.5-1.2-1.5-8.5-3.6-12.8-3.4,5.1,12.6,8.6,18.1,10.1,22.9Z"/>
</svg>