<?xml version="1.0" encoding="UTF-8"?><svg id="Ebene_2" xmlns="http://www.w3.org/2000/svg" width="537.66mm" height="543.51mm" viewBox="0 0 1524.09 1540.66"><g id="Ebene_1-2">



<path d="M1514.96,752.24c-7.06-3.01-14.23-5.53-21.69-7.48-16.23-4.23-26.69-15.38-32.68-30.46-7.47-18.79-10.8-38.73-14.58-58.51-3.28-17.17-5.65-34.48-8.21-51.77-.61-4.14-.97-8.26-1.05-12.43-.2-10.13,3.83-17.7,13.04-22.3,2.24-1.12,4.87-2.13,4.61-5.22-.24-2.83-2.6-4.11-4.93-5.15-3.19-1.42-6.51-2.6-9.61-4.19-8.64-4.44-13.72-11.86-16.98-20.76-5.45-14.88-8.45-30.46-13.13-45.56-3.89-12.57-6.75-25.37-9.12-38.33-2.29-12.52.95-22.29,11.97-29.24,4.92-3.11,9.65-6.53,14.32-10.02,3.26-2.44,5.64-5.63,6.56-9.75,1.43-6.47-1.69-10.14-8.27-9.42-4.3.47-8.55,1.39-12.85,1.86-15.26,1.67-26.87-6.23-37.99-14.98-11.63-9.15-20.75-20.69-29.44-32.52-19.84-27.01-40.76-53.19-62.85-78.34-15.99-18.2-31.07-36.92-44.48-57.09-6-9.03-9.59-18.43-7.23-29.13,1.73-7.86,6.44-14.51,10.61-21.36,14.45-23.75,33.19-44.13,50.75-65.46,13.34-16.2,26.29-32.71,38.29-49.96,3.7-5.31,8.16-10.09,12.29-15.1.95-1.16,2.03-2.21,2.93-3.41,3.75-4.99,4.41-9.6,1.9-12.84-2.59-3.34-8.38-4.72-13.35-2.65-7.25,3.01-14.07,6.87-20.22,11.8-21.54,17.27-39.77,37.77-58.02,58.37-10.99,12.42-21.63,25.4-34.98,35.58-11.86,9.05-24.84,14.91-40.04,16.32-21.35,1.99-41.17-2.25-60.74-10.63-26.49-11.34-53.44-21.59-79.47-34-7.38-3.51-14.52-7.54-20.49-13.24-6.4-6.12-10.18-13.46-10.07-22.59.04-3.65-.29-7.34-.89-10.94-.59-3.56-2.82-6.08-6.48-6.79-3.43-.67-5.65,1.39-7.44,3.99-.75,1.1-1.62,2.17-2.1,3.39-4.91,12.32-14.97,14.26-26.59,13.53-20.71-1.3-40.77-6.45-61.09-10.02-22.95-4.04-45.86-8.26-68.87-11.96-16.1-2.59-32.26-5.27-46.95-13.1-5.79-3.09-11.13-6.67-15.32-11.81-1.05-1.29-2.25-2.46-3.48-3.58-7.37-6.76-11.06-6.73-18.13.4-13.72,13.83-30.23,22.01-49.38,25.38-37.71,6.64-75.43,13.29-113.04,20.49-12.17,2.33-24.31,3.86-36.64,4.35-11.01.44-19.52-3.37-24.03-14.08-.64-1.51-1.58-2.98-2.69-4.17-4.18-4.48-10.32-3-12.02,2.88-.46,1.58-.76,3.29-.68,4.93.92,19.73-10.24,31.47-26.29,40.04-19.14,10.21-39.22,18.29-59.25,26.52-15.41,6.34-30.57,13.52-46.71,17.65-31.16,7.98-60.44,5.31-85.4-17.75-12.76-11.79-23.84-25.09-35.35-38.02-16.86-18.93-34.4-37.19-54.14-53.17-6.23-5.05-13-9.32-21.28-10.42-4.66-.62-8.74.16-11.29,4.47-2.49,4.21-.37,7.83,2.28,10.94,26.26,30.77,48.83,64.47,75.98,94.58,14.69,16.29,27.47,34.33,37.42,54.11,4.75,9.45,4.88,18.82-.19,28.21-11.83,21.85-27.54,40.84-43.72,59.49-24.13,27.81-47.48,56.25-69.69,85.62-10.39,13.74-21.42,26.92-35.72,36.76-11.69,8.05-24.5,11.77-38.85,8.02-4.28-1.12-9.13-2.27-12.32,2.39-2.25,3.28-.5,9.35,3.37,13.7,3.6,4.05,8.11,6.95,12.67,9.68,18.67,11.17,20.43,18.75,15.54,41.95-5.11,24.24-11.8,48.19-19.37,71.81-3.68,11.49-10.42,20.82-22.7,24.79-3.02.97-6,2.15-8.46,4.2-3,2.49-2.83,5.01.32,7.36.53.4,1.11.75,1.71,1.02,12.8,5.79,15.47,16.85,14.16,29.16-2.39,22.34-5.92,44.49-10.87,66.46-3.4,15.1-6.18,30.32-10.97,45.08-6.11,18.81-17.97,31.44-37.89,35.69-6.84,1.46-13.46,3.81-19.73,6.97-5.84,2.94-7.65,6.16-7.11,12.41.43,4.94,3.85,8.75,9.41,10.42,7.07,2.12,14.34,3.03,21.69,3.24,9.44.26,16.94,4.54,23.08,11.34,9.18,10.17,14.31,22.49,17.11,35.65,5.05,23.78,7.31,48,10.85,72.02,2.91,19.74,6.83,39.32,11.1,58.82,5.55,25.34,11.38,50.66,14.32,76.46,2.19,19.18-2.84,35.93-18.5,48.62-6.99,5.67-5.95,12.94,1.99,17.19,4.41,2.36,9.36,2.83,14.09,2.95,19.72.49,33.19,11.42,44.56,25.95,18.92,24.2,34.71,50.5,51.14,76.37,8.05,12.68,15.69,25.58,21.4,39.49,3.4,8.28,7.31,16.53,8.25,25.54,1.51,14.49-3.79,27.17-13.24,37.57-18.15,19.99-38.09,38.2-58.72,55.63-4.58,3.87-9.16,7.76-13.45,11.93-4.01,3.89-5.86,8.83-5.43,14.5.52,6.85,4.77,10.04,11.6,8.83,8.36-1.49,14.75-6.69,21.54-11.19,19.42-12.88,37.22-28.11,57.52-39.74,14.15-8.11,28.87-14.55,45.42-15.29,14.74-.66,28.69,3.51,42.38,8.28,21.5,7.49,40.84,19.43,60.67,30.31,30.39,16.67,60.1,34.47,89.21,53.28,7.12,4.6,14.12,9.43,20.72,14.81,14.2,11.59,20.51,27.03,22.57,44.72.86,7.42,3.16,10.67,7.3,10.91,3.86.23,7.36-3.3,9.03-9.94,2.42-9.6,6.39-17.78,16.27-21.9,5.56-2.32,11.18-2.16,16.69-.84,18.76,4.5,37.39,9.47,55.95,14.75,18.23,5.19,36.63,9.81,54.97,14.59,14.68,3.82,29.27,7.92,42.79,14.97,15.67,8.18,26.54,21.42,36.53,35.51h21c9.37-14.46,20.8-26.8,36.2-35.04,10.35-5.54,21.5-8.88,32.72-12.04,14.72-4.14,29.45-8.28,44.22-12.27,18.3-4.94,36.42-10.6,54.92-14.82,6.81-1.55,13.65-3.09,20.29-5.2,13.83-4.41,30.71,2.24,33.66,18.39.59,3.21,2.09,6.36,3.68,9.26,3.26,5.96,9.09,5.87,12.42,0,1.34-2.36,1.95-4.96,2.14-7.64,1.35-19.16,10.14-34.05,25.47-45.46,21.42-15.95,44.35-29.51,67.23-43.16,27.3-16.28,54.74-32.39,83.26-46.43,17.66-8.69,36.24-15.27,56.39-15.21,14.98.04,28.8,4.68,41.89,11.62,19.96,10.57,37.22,25.15,55.83,37.74,6.62,4.48,13.2,9.01,19.88,13.4,1.5.98,3.28,1.65,5.02,2.13,4.67,1.3,9.54,2.99,13.54-1.38,2.97-3.25,2.81-12.53-.04-17.2-1.31-2.15-3.06-3.95-5.03-5.51-20.01-15.82-38.34-33.49-56.6-51.25-9-8.75-17.66-17.58-22.87-29.29-5.4-12.15-5.04-24.32-.52-36.46,8.07-21.66,19.83-41.35,32.3-60.73,12.08-18.78,24.21-37.51,36.9-55.87,6.15-8.9,13-17.22,21.05-24.62,8.76-8.06,19.21-10.85,30.55-11.85,5.13-.45,10.33-.69,15.12-2.94,9.08-4.27,10.2-12.07,1.92-17.68-7.9-5.36-12.59-12.6-15.75-21.24-.87-2.38-1.43-4.76-1.58-7.28-1.11-18.77,1-37.15,5.34-55.45,4.42-18.6,7.7-37.47,11.79-56.16,5.05-23.1,8.35-46.5,12.08-69.81,1.73-10.82,3.21-21.72,4.78-32.58,2.46-16.95,6.84-33.36,17.84-47.06,6.02-7.5,13.6-12.68,23.72-13.08,7.01-.28,13.93-1.34,20.79-2.76,6.86-1.42,11.19-5.63,11.63-11.27.44-5.61-2.38-9.36-9.08-12.21ZM1304.3,40.08c4.11-4.55,8.21-9.14,13.12-12.86,1.1-.83,2.55-1.13,2.99.9-.08.37-.05.77-.23,1-3.93,5.16-8.55,9.65-13.62,13.69-.66.53-1.62.54-2.31-.07-.97-.85-.61-1.92.06-2.66ZM218.63,45.22c-2.69-2.18-5.29-4.52-7.69-7.02-2.87-2.97-5.2-6.43-8.44-9.09-.88-.73-1.71-1.88-.6-2.98.85-.84,1.87-.14,2.7.39,6.67,4.24,11.41,10.48,16.68,16.17.42.46.6,1.15.86,1.67-.76,2.48-2.43,1.73-3.51.86ZM1183.86,503.27c7.79,24.96,14.01,50.34,18.98,75.98,4.02,20.72,8.07,41.52,8.26,68.66.37,11.16-5.39,25.33-19.93,34.81-10.63,6.92-22.82,9.54-35.36,8.46-21.73-1.87-43.41-4.48-64.58-10-17.96-4.68-35.15-11.2-50.86-21.43-17.59-11.46-29.13-28.02-39.71-45.5-9.57-15.8-16.36-32.79-20.46-50.75-2.85-12.47-1.2-24.69,3.22-36.73,13.49-36.72,33.03-70.03,55.94-101.57,10.19-14.02,20.48-27.93,31.48-41.31,3.82-4.65,8.2-8.72,13.07-12.29,12.97-9.5,27.06-8.47,39.03,2.42,13.66,12.42,21.96,28.26,29.7,44.58,12.95,27.3,22.24,55.93,31.21,84.68ZM1061.25,144.77c11.07-.34,20.13,5.22,29.24,10.3,11.87,6.62,22.57,14.72,29.86,26.57,6.9,11.22,6.91,21.84,0,30.76-7.89,10.2-21.04,12.76-32.72,6.41-4.56-2.48-8.79-5.43-12.62-8.9-10.28-9.29-19.6-19.44-27.22-31.05-3.29-5.01-4.61-10.66-4.53-16.62.16-11.67,6.42-17.73,18-17.48ZM954.83,64.85c2.15-.02,4.38-.17,6.45.31,7.72,1.78,15.18,1.3,22.43-1.96.86-.39,1.81-.94,2.81-.27-1.43,5.63-6.64,10.05-12.84,10.42-6.97.42-13.41-1.93-19.73-4.53-.92-.38-1.83-1.05-1.73-2.2.13-1.53,1.46-1.74,2.6-1.75ZM873.37,49.11c-3.73,1.29-7.56.86-11.17.16-17.18-3.33-34.62-4.5-51.93-6.7-3.28-.42-6.03-1.55-8-4.61,23.96,2.18,47.67,5.49,71.09,11.15ZM789.39,163.78c3.68-19.34,10.6-37.31,29.33-47.72,14.71-8.17,30.23-7.59,45.62-3.27,32.42,9.11,60.52,26.57,87.26,46.49,26.52,19.76,51.17,41.65,74,65.54,12.54,13.12,24.91,26.42,35.73,41.06,11.28,15.26,13.19,31.16,5.28,48.84-7.38,16.49-18,30.68-28.48,45.09-12.49,17.19-27.87,31.77-42.13,47.37-11.49,12.57-22.9,25.1-37,34.83-15.26,10.53-31.57,19.11-50.14,21.33-28.95,3.45-56.18-2.35-78.67-21.51-12.71-10.83-21.08-25.72-27.02-41.52-6.32-16.8-7.98-34.55-10.63-52.18-4.8-31.92-3.11-64.19-6.36-96.18-1.06-10.39-.17-20.98-.17-32.5-1.38-18.03-.18-37.03,3.37-55.69ZM671.33,44.7c2.85-.39,5.55-.62,7.87-2.57.98-.83,2.3-1.61,3.53-1.73,12.04-1.15,23.68-4.92,35.8-5.46,2.6-.12,5.78.3,6.07,3.08.35,3.34-3.09,4.55-5.78,5.07-7.14,1.39-14.29,2.61-21.6,3.21-13.53,1.11-27.23.18-40.6,3.31-1.33.31-2.95.47-4.55-.7,6.02-3.86,12.82-3.33,19.25-4.2ZM541.06,64.46c8.03,2.89,16.06,1.61,24.13.65,1.94-.23,4.51-.86,5.14,1.6.62,2.41-2.18,2.4-3.65,3.24-5.41,3.12-11.51,2.86-17.58,3.57-4.02-.88-9.14.38-10.88-5.57-.84-2.9-.32-4.63,2.84-3.49ZM512.02,208.07c27.5-26.32,57.03-50.16,89.56-70.04,17.95-10.97,36.78-20.19,57.28-25.54,31.1-8.12,58.42,2.35,70.17,34.95,5.09,14.12,7.39,28.66,7.56,43.56.17,14.83.04,29.66.04,49.59-1.36,19.82-1.06,44.78-3.14,69.74-1.82,21.91-3.18,43.88-6.96,65.49-4.99,28.51-16.65,54.14-41.33,71.07-33.34,22.88-68.5,22.52-104.29,5.45-20.16-9.62-35.78-24.76-50.5-41-6.38-7.04-13.14-13.74-19.74-20.58l-15.66-17.46c-14.92-18.58-29.42-37.34-39.61-59.21-8.85-19.01-5.33-35.71,7.04-51.21,15.38-19.28,31.75-37.74,49.57-54.8ZM401.22,182.09c6.64-12.24,18.12-19.8,29.72-26.79,9.31-5.61,19.22-9.92,26.71-10.42,13.87-.21,19.74,4.95,21.02,15.23.83,6.64.25,12.94-3.8,18.62-9.83,13.76-20.74,26.53-34.39,36.65-6.87,5.09-14.56,8.54-23.32,6.4-16.04-3.92-26.13-20.9-15.94-39.69ZM379,399.64c5.32-10.18,12.44-18.92,21-26.47,12.27-10.82,27.21-10.6,39.96-.14,11.74,9.63,20.83,21.5,29.68,33.62,19.56,26.77,38.72,53.84,53.8,83.48,7.1,13.95,13.67,28.26,18.02,43.28,4.63,15.97,2.46,31.91-3.2,47.5-8.27,22.79-19.84,43.65-35.81,61.9-14.9,17.02-32.71,29.29-55.06,35.17-25.07,6.6-50.53,10.41-76.2,13.23-11.11,1.22-22.25,0-32.29-4.68-16.53-7.7-25.5-21.29-27.03-39.56-.25-2.98-.03-6-.03-8.99.76-15.29,2.66-30.41,5.34-45.51,3.19-18.04,7.71-35.77,11.77-53.59,5.54-24.34,13.53-48,21.7-71.6,8.02-23.18,17-45.89,28.37-67.64ZM132.25,588.8c.87-11.52,4.16-22.9,6.8-34.24,2.59-11.17,5.98-22.15,8.55-33.33,3.64-15.82,9.76-30.78,15.8-45.72,10.43-25.77,23.16-50.52,35.56-75.37,12.74-25.52,27.36-50.11,48.21-70.04,14.54-13.9,31.05-25.69,50.52-31.3,18.27-5.27,32.43-1.98,42.73,12.71,5.02,7.16,6.99,15.4,6.24,23.29.42,14.69-4.43,27.34-8.52,40.15-11.66,36.49-26.85,71.75-37.94,108.43-9.83,32.49-19.57,64.97-26.05,98.43-5.31,27.4-12.08,54.59-22.04,80.83-6.29,16.56-17.51,28.83-32.09,38.44-10.44,6.87-21.79,10.6-34.3,10.63-14.57.03-26.05-6.7-35.09-17.39-12.53-14.82-18.43-32.13-19.98-51.68-1.43-18.12.26-35.97,1.6-53.84ZM309.69,1174.95c-16.72,27.91-48.82,28.21-68.7,9.37-10.05-9.53-16.94-21.35-24.13-32.95-18.48-29.82-33.32-61.43-46.03-94.07-9.36-24.04-18.89-48.06-24.52-73.32-1.95-8.73-3.89-17.52-4.82-26.48-1.66-16.03-4.98-31.94-3.52-48.18,1.36-15.25,3.71-30.26,8.85-44.85,4.26-12.09,9.78-23.31,18.27-32.9,8.62-9.74,18.59-18.01,31.36-21.35,20.39-5.33,38.26,2.25,47.74,24.04,6.25,14.36,9.66,29.66,14.09,44.63,5.39,18.2,8.64,36.89,12.44,55.41,6.7,32.65,15.95,64.57,25.24,96.48,5.85,20.13,11.07,40.41,15.38,60.88,3.31,15.76,6.09,31.74,5.42,45.64.12,14.63-.54,26.75-7.07,37.65ZM320.47,940.11c-4.48-21.36-7.72-42.87-10.39-64.52-1.48-12.08-3.32-24.06-3.02-36.27,0-4.83-.05-9.66,0-14.49.35-30.67,19.01-54.79,47.93-63.98,29.71-9.44,59.83-9.64,90.36-6.61,14.04,1.39,26.96,5.99,39.21,12.46,13.85,7.32,23.07,19.22,30.56,32.71,12.81,23.07,20.47,48.06,26.64,73.44,3.34,13.73.58,27.59-3.94,41.2-8.88,26.73-24.37,49.41-41.31,71.39-12.1,15.69-22.93,32.31-35.29,47.83-14.12,17.72-27.95,35.64-44.53,51.21-4.75,4.46-9.92,8.33-15.6,11.56-6.7,3.81-13.19,3.05-19.41-.74-6.94-4.23-12.58-9.92-16.48-17.08-11.34-20.83-20.26-42.64-27.08-65.38-7.18-23.94-12.54-48.29-17.67-72.72ZM421.94,1326.96c-6.37,10.77-16.2,13.76-28.83,8.67-11.96-4.83-21.71-13.01-31.06-21.51-6.48-5.9-13.29-11.66-17.82-19.45-6.57-11.29-2.91-24.83,8.65-30.77,4.88-2.51,10.03-4.62,15.89-4.03,16.87,1.59,30.49,9.39,41.57,22.06,7.82,8.95,14.09,18.61,14.42,31.02.13,4.88-.26,9.67-2.83,14.01ZM734.7,1367.73c-2.3,11.63-1.97,23.47-4.72,35.07-4.62,19.52-18.17,25.78-36.28,23.33-21.49-2.9-41.92-9.46-60.87-20.08-15.38-8.62-31.87-15.3-46.22-25.72-20.6-14.96-40.53-30.69-59.48-47.83-29.94-27.1-54.18-58.63-75.72-92.4-7.96-12.47-14.79-25.89-17.52-40.62-2.55-13.73-1.7-27.3,3.76-40.66,8.23-20.12,21.1-36.97,35.54-52.71,19.02-20.73,37.34-42.1,57.04-62.2,21.17-21.6,43.47-41.99,70.01-56.77,25.41-14.16,51.27-13.86,76.19,1.92,21.28,13.48,34.38,33.34,42.93,56.58,5.84,15.89,7.94,32.48,10.46,49.12,4.29,28.4,1.76,56.88,3.05,85.29-.01,21.67-1.1,43.4.27,64.97,1.69,26.61,3.3,53.17,2.74,79.82-.3,14.31,1.62,28.8-1.17,42.88ZM1080.17,1221.7c-12.51,25.83-29.5,48.69-47.57,70.72-21.51,26.23-46.59,48.83-72.71,70.44-25.33,20.95-54.21,35.7-83.53,49.67-16.27,7.75-33.68,12.63-51.81,13.96-21.1,1.54-28.2-9.99-31.81-26.94-4.21-19.75-3.72-39.76-3.78-59.74-.07-24.66-.02-49.33-.02-73.99,1.15-34.15.18-68.33,1.1-102.47.64-23.46.27-47.02,3.04-70.37,3.03-25.57,7.78-50.82,22.67-72.67,12.1-17.76,26.78-32.86,47.64-40.24,13.61-4.81,27.47-4.67,41.18,0,21.46,7.29,38.43,21.62,55.66,35.54,25.39,20.51,46.9,44.85,68.57,69.06,12.55,14.02,26.03,27.21,37.14,42.46,8.37,11.49,15.47,23.64,19.72,37.38,6.15,19.9,3.4,38.8-5.51,57.2ZM1173.84,1301.06c-13.21,17.1-31.3,26.86-51.29,33.83-16.6,5.79-25.24-8.37-25.18-22.54,1.06-12.03,7.84-22.24,16-31.63,8.36-9.63,18.73-16.54,31.09-19.87,13.82-3.73,32.84,2.25,36.67,17.47,2.36,9.4-2.19,16.14-7.3,22.75ZM1186.01,1008.15c-8.09,26.09-17.93,51.59-32.81,74.8-3.78,5.9-8.57,10.55-14.94,13.58-5.83,2.77-11.53,2.75-17.24-.3-11.81-6.31-21.25-15.4-29.9-25.41-24.52-28.39-46.14-58.99-68.09-89.35-12.13-16.78-23.45-33.94-32.13-52.8-11.03-23.95-12.83-48.18-4.26-73.33,5.74-16.84,11.03-33.8,19.12-49.75,6.78-13.39,14.76-25.89,27.27-34.51,12.58-8.66,26.55-14.19,41.86-16.47,14.92-2.22,29.9-2.72,44.85-1.85,19.94,1.16,39.76,3.45,58.36,11.83,18.79,8.46,30.01,22.94,35.78,42.38,2.65,8.93,3.64,17.9,3.11,25.25.44,18.62-2.82,34.99-5.15,51.44-1.28,9.06-2.33,18.14-3.87,27.18-5.57,32.85-12.09,65.5-21.95,97.32ZM1374.18,990.51c-13.49,49.73-33.03,97.04-57.64,142.27-8.93,16.41-18.29,32.53-31.1,46.34-9.87,10.64-21.16,17.65-36.49,17.85-16.54.21-27.25-8.43-35.65-21-5.07-7.59-6.96-16.33-7.4-25.58-1.28-26.56,3.05-52.33,9.21-78.03,6.79-28.33,16.23-55.9,23.5-84.07,5.39-20.92,10.88-41.82,15.3-63.01,4.51-21.63,8.84-43.33,15.57-64.47,3.98-12.51,6.73-25.48,14.27-36.52,6.37-9.34,15.49-14.33,26.72-15.45,21.29-2.13,35.54,10,48.26,24.45,11.35,12.89,17.03,28.62,21.42,45.1,3.63,13.63,3.11,27.37,3.6,41.12,1.11,24.26-3.26,47.79-9.55,71.01ZM1386.63,670.18c-5.95,15.32-15.36,28.02-30.07,36.08-10.82,5.93-22.42,6.48-33.96,2.88-23.87-7.46-41.34-22.37-51.14-45.73-6.66-15.88-10.6-32.55-14.78-49.18-7.38-29.39-12.61-59.27-20.49-88.54-12.28-45.58-28.85-89.71-45.16-133.93-5.93-16.1-11.37-32.39-14.42-49.3-3.07-17.04,3.31-35.47,19.92-42.91,10.11-4.53,20.82-3.7,30.72.05,35.86,13.57,61,39.31,80.61,71.55,14.33,23.57,25.2,48.83,37.7,73.28,8.5,16.64,15.65,33.86,21.87,51.45,4.99,14.12,9.06,28.53,12.53,43.12,3.08,12.95,6.49,25.85,8.73,38.96,2.55,14.91,5.44,29.84,4.79,45.71,1.21,15.61-.99,31.39-6.86,46.51Z" style="stroke-width:0px;"/></g></svg>