<?xml version="1.0" encoding="UTF-8"?><svg id="Ebene_2" xmlns="http://www.w3.org/2000/svg" width="45.32" height="25.635" viewBox="0 0 90.64 27.81"><g id="Ebene_1-2"><path d="M27.18,17.16l-1.08-.68h0L1.56,1.1s-.06-.04-.06-.11c0-.06.03-.08.06-.1L.36,0C.14.27,0,.61,0,.98c0,.59.29,1.12.78,1.41l25.86,16.41c.6.57.49,1.35.3,1.56-.6.67-.82.93-1.5,1.51-.15.13-.3.26-.45.4-.13.13-.2.29-.18.48.02.23.16.33.39.29.28-.05.49-.22.72-.37.65-.43,1.24-.94,1.91-1.32.47-.27.96-.48,1.51-.51.49-.02.95.12,1.41.28.72.25,1.36.65,2.02,1.01,1.01.55,2,1.15,2.97,1.77.24.15.47.31.69.49.47.39.68.9.75,1.49.03.25.11.35.24.36.13,0,.24-.11.3-.33.08-.32.21-.59.54-.73.19-.08.37-.07.56-.03.62.15,1.24.32,1.86.49.61.17,1.22.33,1.83.49.49.13.97.26,1.42.5.52.27.88.71,1.22,1.18h.7c.31-.48.69-.89,1.2-1.17.34-.18.72-.3,1.09-.4.49-.14.98-.28,1.47-.41.61-.16,1.21-.35,1.83-.49.23-.05.45-.1.68-.17.46-.15,1.02.07,1.12.61.02.11.07.21.12.31.11.2.3.2.41,0,.04-.08.06-.16.07-.25.04-.64.34-1.13.85-1.51.71-.53,1.48-.98,2.24-1.44.91-.54,1.82-1.08,2.77-1.54.59-.29,1.21-.51,1.88-.51.5,0,.96.16,1.39.39.66.35,1.24.84,1.86,1.26.22.15.44.3.66.45.05.03.11.05.17.07.16.04.32.1.45-.05.1-.11.09-.42,0-.57-.04-.07-.1-.13-.17-.18-.67-.53-1.28-1.11-1.88-1.71-.3-.29-.7-.54-.72-.96-.02-.35.12-.73.51-1.01l25.88-15.19c.59-.38.93-1.03.92-1.73,0-.09-.02-.18-.04-.26l-1.47.38c-.02.1-.07.25-.21.35l-19.3,11.33h0s-.09.05-.09.05l-5.36,3.15-18.47,8.24" style="fill:#000; stroke-width:0px;"/></g></svg>