<?xml version="1.0" encoding="UTF-8" standalone="no"?>
<!DOCTYPE svg PUBLIC "-//W3C//DTD SVG 1.1//EN" "http://www.w3.org/Graphics/SVG/1.1/DTD/svg11.dtd">
<svg width="100%" height="100%" fill="#fff" viewBox="0 0 40 40" version="1.1" xmlns="http://www.w3.org/2000/svg" xmlns:xlink="http://www.w3.org/1999/xlink" xml:space="preserve" xmlns:serif="http://www.serif.com/" style="fill-rule:evenodd;clip-rule:evenodd;stroke-linejoin:round;stroke-miterlimit:2;">
    <g transform="matrix(0.442895,0,0,0.442895,-397.129,-363.558)">
        <path d="M896.668,866.025L897.422,866.587L898.176,867.149L898.93,867.711L899.685,868.273L900.439,868.834L901.193,869.396L901.947,869.958L902.701,870.52L903.455,871.082L904.209,871.643L904.963,872.205L905.717,872.767L906.471,873.329L907.225,873.891L907.979,874.452L908.733,875.014L909.487,875.576L910.242,876.138L910.996,876.7L911.75,877.261L912.504,877.823L913.258,878.385L914.012,878.947L914.766,879.509L915.52,880.07L916.274,880.632L917.028,881.194L917.782,881.756L918.536,882.318L919.29,882.879L920.044,883.441L920.798,884.003L921.553,884.565L922.307,885.127L923.061,885.688L923.815,886.25L924.569,886.812L925.323,887.374L926.077,887.936L926.831,888.497L927.585,889.059L928.339,889.621L929.093,890.183L929.847,890.745L930.601,891.306L931.355,891.868L932.109,892.43L932.864,892.992L933.618,893.554L934.372,894.115L935.126,894.677L935.88,895.239L936.634,895.801L937.388,896.363L938.142,896.924L938.896,897.486L939.65,898.048L940.404,898.61L941.158,899.172L941.912,899.733L942.666,900.295L943.421,900.857L944.175,901.419L944.929,901.981L944.929,830.071L944.175,830.633L943.421,831.195L942.666,831.756L941.912,832.318L941.158,832.88L940.404,833.442L939.65,834.003L938.896,834.565L938.142,835.127L937.388,835.689L936.634,836.251L935.88,836.812L935.126,837.374L934.372,837.936L933.618,838.498L932.864,839.06L932.109,839.621L931.355,840.183L930.601,840.745L929.847,841.307L929.093,841.868L928.339,842.43L927.585,842.992L926.831,843.554L926.077,844.116L925.323,844.677L924.569,845.239L923.815,845.801L923.061,846.363L922.307,846.925L921.553,847.486L920.798,848.048L920.044,848.61L919.29,849.172L918.536,849.734L917.782,850.295L917.028,850.857L916.274,851.419L915.52,851.981L914.766,852.542L914.012,853.104L913.258,853.666L912.504,854.228L911.75,854.79L910.996,855.351L910.242,855.913L909.487,856.475L908.733,857.037L907.979,857.599L907.225,858.16L906.471,858.722L905.717,859.284L904.963,859.846L904.209,860.408L903.455,860.969L902.701,861.531L901.947,862.093L901.193,862.655L900.439,863.216L899.685,863.778L898.93,864.34L898.176,864.902L897.422,865.464L896.668,866.025Z" />
        <rect x="896.668" y="850.455" width="21.141" height="31.141" />
        <path d="M963.664,899.842C963.647,899.842 963.631,899.842 963.614,899.841C963.598,899.841 963.581,899.841 963.565,899.84C963.548,899.839 963.532,899.839 963.516,899.838C963.499,899.837 963.483,899.836 963.466,899.835C963.45,899.833 963.434,899.832 963.417,899.831C963.401,899.829 963.385,899.827 963.368,899.826C963.352,899.824 963.336,899.822 963.32,899.82C963.303,899.818 963.287,899.816 963.271,899.813C963.255,899.811 963.239,899.808 963.223,899.806C963.206,899.803 963.19,899.8 963.174,899.797C963.158,899.794 963.142,899.791 963.126,899.788C963.11,899.785 963.094,899.781 963.078,899.778C963.062,899.774 963.047,899.77 963.031,899.767C963.015,899.763 962.999,899.759 962.983,899.755C962.968,899.751 962.952,899.746 962.936,899.742C962.92,899.738 962.905,899.733 962.889,899.729C962.874,899.724 962.858,899.719 962.843,899.714C962.827,899.709 962.812,899.704 962.796,899.699C962.781,899.694 962.765,899.688 962.75,899.683C962.735,899.677 962.72,899.672 962.704,899.666C962.689,899.66 962.629,899.636 962.614,899.63C962.599,899.624 962.584,899.617 962.569,899.611C962.554,899.604 962.539,899.597 962.524,899.591C962.51,899.584 962.495,899.577 962.48,899.57C962.466,899.563 962.451,899.555 962.437,899.548C962.422,899.541 962.408,899.533 962.393,899.526C962.379,899.518 962.365,899.51 962.35,899.502C962.336,899.494 962.322,899.486 962.308,899.478C962.294,899.47 962.28,899.462 962.266,899.453C962.252,899.445 962.238,899.437 962.224,899.428C962.21,899.419 962.196,899.411 962.183,899.402C962.169,899.393 962.155,899.384 962.142,899.375C962.128,899.365 962.115,899.356 962.102,899.347C962.088,899.337 962.075,899.328 962.062,899.318C962.049,899.308 962.035,899.299 962.022,899.289C962.009,899.279 961.996,899.269 961.983,899.259C961.971,899.249 961.958,899.238 961.945,899.228C961.932,899.218 961.92,899.207 961.907,899.197C961.895,899.186 961.882,899.175 961.87,899.164C961.858,899.153 961.845,899.142 961.833,899.131C961.821,899.12 961.809,899.109 961.797,899.098C961.785,899.086 961.773,899.075 961.761,899.063C961.75,899.052 961.738,899.04 961.726,899.028C961.715,899.016 961.703,899.005 961.692,898.992C961.681,898.98 961.669,898.968 961.658,898.956C961.647,898.944 961.636,898.931 961.625,898.919C961.614,898.906 961.603,898.894 961.592,898.881C961.582,898.868 961.571,898.856 961.56,898.843C961.55,898.83 961.54,898.817 961.529,898.803C961.519,898.79 961.509,898.777 961.499,898.764C961.489,898.75 961.479,898.737 961.469,898.723C961.459,898.709 961.449,898.696 961.439,898.682C961.43,898.668 961.42,898.654 961.411,898.64C961.401,898.626 961.392,898.612 961.383,898.598C961.374,898.583 961.365,898.569 961.356,898.554C961.347,898.54 961.338,898.525 961.33,898.511C961.321,898.496 961.312,898.481 961.304,898.466C961.296,898.451 961.287,898.436 961.279,898.421C961.271,898.406 961.263,898.391 961.255,898.376C961.247,898.36 961.239,898.345 961.232,898.329C961.224,898.314 961.217,898.298 961.209,898.282C961.202,898.267 961.195,898.251 961.188,898.235C961.18,898.219 961.174,898.203 961.167,898.187C961.158,898.165 961.149,898.144 961.14,898.122C961.132,898.1 961.124,898.079 961.116,898.057C961.108,898.035 961.1,898.013 961.093,897.992C961.085,897.97 961.078,897.948 961.072,897.926C961.065,897.904 961.058,897.882 961.052,897.86C961.046,897.838 961.04,897.816 961.035,897.794C961.029,897.772 961.024,897.75 961.019,897.728C961.014,897.706 961.009,897.684 961.005,897.662C961,897.64 960.996,897.618 960.992,897.596C960.988,897.574 960.985,897.551 960.982,897.529C960.978,897.507 960.975,897.485 960.972,897.463C960.97,897.441 960.967,897.419 960.965,897.396C960.963,897.374 960.961,897.352 960.959,897.33C960.958,897.308 960.956,897.286 960.955,897.264C960.954,897.242 960.953,897.22 960.953,897.198C960.952,897.176 960.952,897.154 960.952,897.131C960.952,897.109 960.952,897.087 960.953,897.065C960.953,897.044 960.954,897.022 960.955,897C960.956,896.978 960.958,896.956 960.959,896.934C960.961,896.912 960.963,896.89 960.965,896.869C960.967,896.847 960.969,896.825 960.972,896.804C960.974,896.782 960.977,896.76 960.981,896.739C960.984,896.717 960.987,896.695 960.991,896.674C960.995,896.653 960.998,896.631 961.003,896.61C961.007,896.588 961.011,896.567 961.016,896.546C961.021,896.525 961.026,896.504 961.031,896.482C961.036,896.461 961.041,896.44 961.047,896.419C961.053,896.398 961.059,896.378 961.065,896.357C961.071,896.336 961.078,896.315 961.084,896.295C961.091,896.274 961.098,896.253 961.105,896.233C961.112,896.212 961.12,896.192 961.127,896.172C961.135,896.151 961.143,896.131 961.151,896.111C961.159,896.091 961.168,896.071 961.176,896.051C961.185,896.031 961.194,896.011 961.203,895.992C961.212,895.972 961.221,895.953 961.231,895.933C961.24,895.914 961.25,895.894 961.26,895.875C961.27,895.856 961.28,895.837 961.291,895.818C961.301,895.799 961.312,895.78 961.323,895.761C961.334,895.742 961.345,895.724 961.357,895.705C961.368,895.687 961.38,895.668 961.391,895.65C961.403,895.632 961.415,895.614 961.428,895.596C961.44,895.578 961.452,895.56 961.465,895.542C961.478,895.524 961.491,895.507 961.504,895.489C961.517,895.472 961.531,895.455 961.544,895.438C961.558,895.421 961.572,895.404 961.586,895.387C961.6,895.37 961.614,895.354 961.629,895.337C961.643,895.321 961.658,895.304 961.673,895.288C961.688,895.272 961.703,895.256 961.718,895.24C961.733,895.224 961.749,895.209 961.765,895.193C961.78,895.178 961.796,895.163 961.813,895.148C961.829,895.133 961.845,895.118 961.862,895.103C961.878,895.088 961.895,895.074 961.912,895.059C961.929,895.045 961.946,895.031 961.963,895.017C961.981,895.003 961.998,894.989 962.016,894.976C962.034,894.962 962.052,894.949 962.07,894.935C962.088,894.922 962.107,894.909 962.125,894.897C962.144,894.884 962.162,894.871 962.181,894.859C962.2,894.847 962.22,894.835 962.239,894.823C962.258,894.811 962.278,894.799 962.297,894.788C962.317,894.776 962.337,894.765 962.357,894.754C962.377,894.743 962.398,894.732 962.418,894.722C962.438,894.711 962.459,894.701 962.48,894.691C962.501,894.681 962.522,894.671 962.543,894.661C962.564,894.652 962.586,894.642 962.607,894.633C962.787,894.557 962.966,894.479 963.144,894.4C963.322,894.321 963.499,894.241 963.674,894.158C963.85,894.076 964.025,893.992 964.199,893.907C964.373,893.822 964.546,893.735 964.717,893.647C964.889,893.559 965.06,893.469 965.229,893.378C965.399,893.287 965.568,893.195 965.735,893.101C965.903,893.007 966.069,892.911 966.234,892.814C966.4,892.718 966.564,892.619 966.727,892.52C966.89,892.42 967.052,892.319 967.213,892.216C967.374,892.114 967.534,892.01 967.693,891.905C967.852,891.8 968.009,891.693 968.166,891.586C968.322,891.478 968.477,891.368 968.632,891.258C968.786,891.147 968.939,891.036 969.091,890.922C969.243,890.809 969.393,890.695 969.543,890.579C969.692,890.463 969.841,890.346 969.988,890.228C970.135,890.11 970.281,889.99 970.426,889.869C970.571,889.749 970.714,889.627 970.857,889.503C970.999,889.38 971.14,889.256 971.28,889.13C971.42,889.004 971.559,888.877 971.696,888.749C971.834,888.621 971.97,888.492 972.105,888.362C972.24,888.231 972.374,888.099 972.506,887.967C972.638,887.834 972.77,887.7 972.9,887.565C973.029,887.43 973.158,887.294 973.285,887.157C973.413,887.019 973.539,886.881 973.664,886.742C973.788,886.602 973.912,886.462 974.034,886.32C974.156,886.179 974.277,886.036 974.396,885.892C974.516,885.748 974.634,885.604 974.751,885.458C974.868,885.312 974.983,885.165 975.097,885.017C975.212,884.87 975.324,884.721 975.436,884.571C975.547,884.421 975.657,884.27 975.766,884.118C975.875,883.967 975.982,883.814 976.088,883.66C976.194,883.506 976.298,883.352 976.401,883.196C976.504,883.041 976.606,882.884 976.706,882.727C976.806,882.569 976.905,882.411 977.003,882.251C977.1,882.092 977.196,881.932 977.291,881.771C977.385,881.61 977.478,881.448 977.57,881.285C977.662,881.123 977.752,880.959 977.841,880.794C977.929,880.63 978.016,880.465 978.102,880.299C978.188,880.133 978.272,879.966 978.355,879.798C978.438,879.63 978.519,879.462 978.599,879.292C978.679,879.123 978.757,878.953 978.834,878.782C978.91,878.611 978.986,878.44 979.059,878.267C979.133,878.095 979.205,877.922 979.276,877.748C979.346,877.574 979.416,877.4 979.483,877.225C979.551,877.049 979.617,876.873 979.681,876.697C979.745,876.52 979.808,876.343 979.869,876.165C979.931,875.987 979.99,875.808 980.048,875.629C980.106,875.45 980.163,875.27 980.218,875.09C980.272,874.909 980.326,874.728 980.377,874.546C980.429,874.364 980.479,874.182 980.527,873.999C980.575,873.816 980.622,873.633 980.667,873.449C980.712,873.265 980.756,873.08 980.797,872.895C980.839,872.709 980.879,872.524 980.918,872.338C980.956,872.151 980.993,871.964 981.028,871.777C981.063,871.59 981.096,871.402 981.128,871.214C981.159,871.025 981.189,870.837 981.218,870.647C981.246,870.458 981.272,870.268 981.297,870.078C981.322,869.888 981.345,869.698 981.366,869.506C981.388,869.315 981.407,869.124 981.425,868.932C981.443,868.74 981.459,868.548 981.473,868.355C981.488,868.162 981.5,867.969 981.511,867.776C981.522,867.583 981.531,867.389 981.538,867.195C981.545,867 981.551,866.806 981.554,866.611C981.558,866.416 981.56,866.221 981.56,866.025C981.56,865.83 981.558,865.635 981.554,865.44C981.551,865.245 981.545,865.05 981.538,864.856C981.531,864.662 981.522,864.468 981.511,864.275C981.5,864.081 981.488,863.888 981.473,863.696C981.459,863.503 981.443,863.311 981.425,863.119C981.407,862.927 981.388,862.735 981.366,862.544C981.345,862.353 981.322,862.163 981.297,861.973C981.272,861.782 981.246,861.593 981.218,861.403C981.189,861.214 981.159,861.025 981.128,860.837C981.096,860.649 981.063,860.461 981.028,860.274C980.993,860.086 980.956,859.9 980.918,859.713C980.879,859.527 980.839,859.341 980.797,859.156C980.756,858.971 980.712,858.786 980.667,858.602C980.622,858.418 980.575,858.235 980.527,858.052C980.479,857.869 980.429,857.686 980.377,857.505C980.326,857.323 980.272,857.142 980.218,856.961C980.163,856.781 980.106,856.601 980.048,856.422C979.99,856.242 979.931,856.064 979.869,855.886C979.808,855.708 979.745,855.531 979.681,855.354C979.617,855.177 979.551,855.001 979.483,854.826C979.416,854.651 979.346,854.477 979.276,854.303C979.205,854.129 979.133,853.956 979.059,853.784C978.986,853.611 978.91,853.44 978.834,853.269C978.757,853.098 978.679,852.928 978.599,852.759C978.519,852.589 978.438,852.421 978.355,852.253C978.272,852.085 978.188,851.918 978.102,851.752C978.016,851.586 977.929,851.421 977.841,851.256C977.752,851.092 977.662,850.928 977.57,850.766C977.478,850.603 977.385,850.441 977.291,850.28C977.196,850.119 977.1,849.959 977.003,849.799C976.905,849.64 976.806,849.482 976.706,849.324C976.606,849.167 976.504,849.01 976.401,848.855C976.298,848.699 976.194,848.544 976.088,848.391C975.982,848.237 975.875,848.084 975.766,847.932C975.657,847.781 975.547,847.63 975.436,847.48C975.324,847.33 975.212,847.181 975.097,847.033C974.983,846.886 974.868,846.739 974.751,846.593C974.634,846.447 974.516,846.302 974.396,846.159C974.277,846.015 974.156,845.872 974.034,845.731C973.912,845.589 973.788,845.449 973.664,845.309C973.539,845.17 973.413,845.031 973.285,844.894C973.158,844.757 973.029,844.621 972.9,844.486C972.77,844.351 972.638,844.217 972.506,844.084C972.374,843.951 972.24,843.82 972.105,843.689C971.97,843.559 971.834,843.43 971.696,843.302C971.559,843.174 971.42,843.047 971.28,842.921C971.14,842.795 970.999,842.671 970.857,842.548C970.714,842.424 970.571,842.302 970.426,842.181C970.281,842.061 970.135,841.941 969.988,841.823C969.841,841.705 969.692,841.588 969.543,841.472C969.393,841.356 969.243,841.242 969.091,841.128C968.939,841.015 968.786,840.904 968.632,840.793C968.477,840.682 968.322,840.573 968.166,840.465C968.009,840.357 967.852,840.251 967.693,840.146C967.534,840.041 967.374,839.937 967.213,839.834C967.052,839.732 966.89,839.631 966.727,839.531C966.564,839.432 966.4,839.333 966.234,839.236C966.069,839.14 965.903,839.044 965.735,838.95C965.568,838.856 965.399,838.764 965.229,838.673C965.06,838.581 964.889,838.492 964.717,838.404C964.546,838.315 964.373,838.229 964.199,838.144C964.025,838.058 963.85,837.975 963.674,837.893C963.499,837.81 963.322,837.73 963.144,837.651C962.966,837.571 962.787,837.494 962.607,837.418C962.586,837.409 962.564,837.399 962.543,837.39C962.522,837.38 962.501,837.37 962.48,837.36C962.459,837.35 962.438,837.34 962.418,837.329C962.398,837.319 962.377,837.308 962.357,837.297C962.337,837.286 962.317,837.275 962.297,837.263C962.278,837.252 962.258,837.24 962.239,837.228C962.22,837.216 962.2,837.204 962.181,837.192C962.162,837.18 962.144,837.167 962.125,837.154C962.107,837.142 962.088,837.129 962.07,837.115C962.052,837.102 962.034,837.089 962.016,837.075C961.998,837.062 961.981,837.048 961.963,837.034C961.946,837.02 961.929,837.006 961.912,836.992C961.895,836.977 961.878,836.963 961.862,836.948C961.845,836.933 961.829,836.918 961.813,836.903C961.796,836.888 961.78,836.873 961.765,836.857C961.749,836.842 961.733,836.826 961.718,836.811C961.703,836.795 961.688,836.779 961.673,836.763C961.658,836.747 961.643,836.73 961.629,836.714C961.614,836.697 961.6,836.681 961.586,836.664C961.572,836.647 961.558,836.63 961.544,836.613C961.531,836.596 961.517,836.579 961.504,836.561C961.491,836.544 961.478,836.526 961.465,836.509C961.452,836.491 961.44,836.473 961.428,836.455C961.415,836.437 961.403,836.419 961.391,836.401C961.38,836.383 961.368,836.364 961.357,836.346C961.345,836.327 961.334,836.309 961.323,836.29C961.312,836.271 961.301,836.252 961.291,836.233C961.28,836.214 961.27,836.195 961.26,836.176C961.25,836.157 961.24,836.137 961.231,836.118C961.221,836.098 961.212,836.079 961.203,836.059C961.194,836.039 961.185,836.02 961.176,836C961.168,835.98 961.159,835.96 961.151,835.94C961.143,835.92 961.135,835.899 961.127,835.879C961.12,835.859 961.112,835.838 961.105,835.818C961.098,835.797 961.091,835.777 961.084,835.756C961.078,835.736 961.071,835.715 961.065,835.694C961.059,835.673 961.053,835.652 961.047,835.631C961.041,835.611 961.036,835.59 961.031,835.568C961.026,835.547 961.021,835.526 961.016,835.505C961.011,835.484 961.007,835.462 961.003,835.441C960.998,835.42 960.995,835.398 960.991,835.377C960.987,835.355 960.984,835.334 960.981,835.312C960.977,835.291 960.974,835.269 960.972,835.247C960.969,835.226 960.967,835.204 960.965,835.182C960.963,835.16 960.961,835.139 960.959,835.117C960.958,835.095 960.956,835.073 960.955,835.051C960.954,835.029 960.953,835.007 960.953,834.985C960.952,834.963 960.952,834.941 960.952,834.919C960.952,834.897 960.952,834.875 960.953,834.853C960.953,834.831 960.954,834.809 960.955,834.787C960.956,834.765 960.958,834.743 960.959,834.721C960.961,834.699 960.963,834.676 960.965,834.654C960.967,834.632 960.97,834.61 960.972,834.588C960.975,834.566 960.978,834.544 960.982,834.522C960.985,834.499 960.988,834.477 960.992,834.455C960.996,834.433 961,834.411 961.005,834.389C961.009,834.367 961.014,834.345 961.019,834.323C961.024,834.301 961.029,834.279 961.035,834.257C961.04,834.235 961.046,834.213 961.052,834.191C961.058,834.169 961.065,834.147 961.072,834.125C961.078,834.103 961.085,834.081 961.093,834.059C961.1,834.037 961.108,834.016 961.116,833.994C961.124,833.972 961.132,833.951 961.14,833.929C961.149,833.907 961.158,833.886 961.167,833.864C961.176,833.842 961.185,833.821 961.195,833.8C961.204,833.779 961.214,833.758 961.224,833.737C961.234,833.716 961.244,833.696 961.255,833.675C961.265,833.655 961.276,833.635 961.287,833.614C961.298,833.594 961.309,833.575 961.32,833.555C961.332,833.535 961.343,833.516 961.355,833.496C961.367,833.477 961.379,833.458 961.391,833.439C961.404,833.42 961.416,833.401 961.429,833.383C961.442,833.364 961.455,833.346 961.468,833.328C961.481,833.31 961.494,833.292 961.508,833.274C961.521,833.256 961.535,833.239 961.549,833.221C961.563,833.204 961.577,833.187 961.591,833.17C961.605,833.153 961.62,833.136 961.634,833.119C961.649,833.103 961.664,833.087 961.679,833.07C961.694,833.054 961.709,833.038 961.725,833.023C961.74,833.007 961.756,832.991 961.771,832.976C961.787,832.961 961.803,832.946 961.819,832.931C961.835,832.916 961.851,832.901 961.868,832.887C961.884,832.872 961.901,832.858 961.918,832.844C961.934,832.83 961.951,832.816 961.968,832.802C961.985,832.789 962.003,832.775 962.02,832.762C962.037,832.749 962.055,832.736 962.072,832.723C962.09,832.71 962.108,832.698 962.126,832.686C962.144,832.673 962.162,832.661 962.18,832.649C962.198,832.638 962.216,832.626 962.235,832.615C962.253,832.603 962.272,832.592 962.291,832.581C962.309,832.57 962.328,832.559 962.347,832.549C962.366,832.538 962.385,832.528 962.405,832.518C962.424,832.508 962.443,832.498 962.463,832.489C962.482,832.479 962.502,832.47 962.521,832.461C962.541,832.451 962.561,832.443 962.581,832.434C962.6,832.425 962.62,832.417 962.64,832.409C962.661,832.401 962.681,832.393 962.701,832.385C962.721,832.377 962.742,832.37 962.762,832.363C962.783,832.356 962.803,832.349 962.824,832.342C962.844,832.335 962.865,832.329 962.886,832.323C962.907,832.316 962.927,832.31 962.948,832.305C962.969,832.299 962.99,832.294 963.011,832.288C963.033,832.283 963.054,832.278 963.075,832.273C963.096,832.269 963.117,832.264 963.139,832.26C963.16,832.256 963.182,832.252 963.203,832.248C963.225,832.245 963.246,832.241 963.268,832.238C963.289,832.235 963.311,832.232 963.333,832.229C963.354,832.226 963.376,832.224 963.398,832.222C963.42,832.22 963.442,832.218 963.463,832.216C963.485,832.215 963.507,832.213 963.529,832.212C963.551,832.211 963.573,832.21 963.595,832.21C963.617,832.209 963.639,832.209 963.661,832.209C963.683,832.209 963.705,832.209 963.727,832.21C963.749,832.21 963.772,832.211 963.794,832.212C963.816,832.213 963.838,832.215 963.86,832.216C963.882,832.218 963.904,832.22 963.927,832.222C963.949,832.224 963.971,832.226 963.993,832.229C964.015,832.232 964.038,832.235 964.06,832.238C964.082,832.241 964.104,832.245 964.126,832.249C964.149,832.253 964.171,832.257 964.193,832.261C964.215,832.266 964.237,832.27 964.259,832.275C964.282,832.28 964.304,832.286 964.326,832.291C964.348,832.297 964.37,832.303 964.392,832.309C964.414,832.315 964.436,832.321 964.458,832.328C964.48,832.335 964.502,832.342 964.524,832.349C964.546,832.357 964.568,832.364 964.59,832.372C964.612,832.38 964.633,832.388 964.655,832.397C964.677,832.405 964.699,832.414 964.72,832.423C964.932,832.512 965.142,832.603 965.351,832.696C965.56,832.789 965.768,832.884 965.974,832.981C966.181,833.077 966.386,833.175 966.59,833.275C966.794,833.375 966.997,833.477 967.199,833.581C967.401,833.684 967.601,833.79 967.801,833.897C968,834.003 968.198,834.112 968.395,834.223C968.591,834.333 968.787,834.445 968.981,834.559C969.175,834.672 969.368,834.788 969.56,834.905C969.751,835.022 969.942,835.141 970.131,835.261C970.32,835.381 970.508,835.503 970.694,835.627C970.881,835.75 971.066,835.875 971.25,836.002C971.433,836.129 971.616,836.257 971.797,836.387C971.978,836.517 972.158,836.648 972.336,836.781C972.514,836.914 972.692,837.048 972.867,837.184C973.043,837.32 973.217,837.458 973.39,837.596C973.563,837.735 973.734,837.876 973.904,838.018C974.074,838.16 974.243,838.303 974.41,838.448C974.578,838.592 974.743,838.739 974.908,838.886C975.072,839.034 975.235,839.183 975.396,839.333C975.558,839.484 975.718,839.636 975.877,839.789C976.035,839.942 976.192,840.097 976.348,840.252C976.503,840.408 976.657,840.566 976.81,840.724C976.963,840.883 977.114,841.043 977.263,841.204C977.413,841.365 977.561,841.528 977.708,841.691C977.854,841.855 977.999,842.02 978.143,842.187C978.286,842.353 978.428,842.52 978.568,842.689C978.709,842.858 978.848,843.028 978.985,843.199C979.122,843.371 979.258,843.543 979.392,843.717C979.526,843.89 979.658,844.065 979.789,844.241C979.92,844.417 980.049,844.594 980.177,844.773C980.305,844.951 980.431,845.13 980.555,845.311C980.679,845.492 980.802,845.673 980.923,845.856C981.044,846.039 981.164,846.223 981.282,846.408C981.399,846.593 981.516,846.779 981.63,846.966C981.744,847.153 981.857,847.341 981.968,847.53C982.079,847.719 982.189,847.909 982.296,848.101C982.404,848.292 982.51,848.484 982.614,848.677C982.718,848.87 982.821,849.064 982.922,849.26C983.022,849.455 983.121,849.651 983.219,849.848C983.316,850.045 983.411,850.243 983.505,850.442C983.599,850.641 983.691,850.84 983.781,851.041C983.871,851.242 983.959,851.443 984.046,851.646C984.133,851.848 984.217,852.051 984.3,852.255C984.383,852.46 984.464,852.665 984.544,852.87C984.623,853.076 984.701,853.283 984.776,853.49C984.852,853.698 984.926,853.906 984.997,854.115C985.069,854.324 985.139,854.534 985.208,854.744C985.276,854.955 985.342,855.166 985.406,855.378C985.471,855.59 985.533,855.803 985.594,856.017C985.655,856.23 985.713,856.444 985.77,856.659C985.827,856.874 985.882,857.09 985.935,857.306C985.988,857.522 986.039,857.739 986.088,857.957C986.137,858.174 986.184,858.392 986.229,858.611C986.274,858.83 986.317,859.049 986.358,859.269C986.399,859.489 986.439,859.71 986.476,859.931C986.513,860.152 986.548,860.374 986.581,860.596C986.615,860.819 986.646,861.041 986.675,861.265C986.704,861.488 986.731,861.712 986.756,861.936C986.781,862.161 986.804,862.386 986.825,862.611C986.846,862.837 986.865,863.063 986.882,863.289C986.899,863.515 986.913,863.742 986.926,863.969C986.939,864.196 986.949,864.424 986.958,864.652C986.966,864.88 986.973,865.109 986.977,865.338C986.981,865.567 986.983,865.796 986.983,866.025C986.983,866.255 986.981,866.484 986.977,866.713C986.973,866.942 986.966,867.171 986.958,867.399C986.949,867.627 986.939,867.854 986.926,868.082C986.913,868.309 986.899,868.536 986.882,868.762C986.865,868.988 986.846,869.214 986.825,869.44C986.804,869.665 986.781,869.89 986.756,870.114C986.731,870.339 986.704,870.563 986.675,870.786C986.646,871.009 986.615,871.232 986.581,871.454C986.548,871.677 986.513,871.898 986.476,872.12C986.439,872.341 986.399,872.561 986.358,872.781C986.317,873.001 986.274,873.221 986.229,873.44C986.184,873.658 986.137,873.877 986.088,874.094C986.039,874.312 985.988,874.529 985.935,874.745C985.882,874.961 985.827,875.177 985.77,875.391C985.713,875.606 985.655,875.82 985.594,876.034C985.533,876.247 985.471,876.46 985.406,876.672C985.342,876.884 985.276,877.095 985.208,877.306C985.139,877.517 985.069,877.726 984.997,877.935C984.926,878.144 984.852,878.353 984.776,878.56C984.701,878.767 984.623,878.974 984.544,879.18C984.464,879.386 984.383,879.591 984.3,879.795C984.217,879.999 984.133,880.202 984.046,880.405C983.959,880.607 983.871,880.809 983.781,881.009C983.691,881.21 983.599,881.41 983.505,881.609C983.411,881.807 983.316,882.005 983.219,882.202C983.121,882.399 983.022,882.595 982.922,882.791C982.821,882.986 982.718,883.18 982.614,883.373C982.51,883.566 982.404,883.758 982.296,883.949C982.189,884.141 982.079,884.331 981.968,884.52C981.857,884.709 981.744,884.897 981.63,885.084C981.516,885.271 981.399,885.457 981.282,885.642C981.164,885.827 981.044,886.011 980.923,886.194C980.802,886.377 980.679,886.558 980.555,886.739C980.431,886.919 980.305,887.099 980.177,887.277C980.049,887.456 979.92,887.633 979.789,887.809C979.658,887.985 979.526,888.159 979.392,888.333C979.258,888.507 979.122,888.679 978.985,888.85C978.848,889.022 978.709,889.192 978.568,889.36C978.428,889.529 978.286,889.697 978.143,889.863C977.999,890.029 977.854,890.195 977.708,890.358C977.561,890.522 977.413,890.685 977.263,890.846C977.114,891.007 976.963,891.167 976.81,891.325C976.657,891.484 976.503,891.641 976.348,891.797C976.192,891.953 976.035,892.108 975.877,892.261C975.718,892.414 975.558,892.566 975.396,892.716C975.235,892.867 975.072,893.016 974.908,893.163C974.743,893.311 974.578,893.457 974.41,893.602C974.243,893.747 974.074,893.89 973.904,894.032C973.734,894.174 973.563,894.314 973.39,894.453C973.217,894.592 973.043,894.729 972.867,894.865C972.692,895.001 972.514,895.136 972.336,895.269C972.158,895.402 971.978,895.533 971.797,895.663C971.616,895.793 971.433,895.921 971.25,896.048C971.066,896.174 970.881,896.299 970.694,896.423C970.508,896.547 970.32,896.668 970.131,896.789C969.942,896.909 969.751,897.028 969.56,897.145C969.368,897.262 969.175,897.377 968.981,897.491C968.787,897.605 968.591,897.717 968.395,897.827C968.198,897.938 968,898.046 967.801,898.153C967.601,898.26 967.401,898.366 967.199,898.469C966.997,898.573 966.794,898.675 966.59,898.775C966.386,898.875 966.181,898.973 965.974,899.07C965.768,899.166 965.56,899.261 965.351,899.354C965.142,899.447 964.932,899.538 964.72,899.627C964.715,899.63 964.71,899.632 964.704,899.634C964.699,899.636 964.693,899.638 964.688,899.641C964.683,899.643 964.677,899.645 964.672,899.647C964.666,899.649 964.661,899.652 964.656,899.654C964.65,899.656 964.645,899.658 964.639,899.66C964.634,899.662 964.628,899.664 964.623,899.666C964.618,899.668 964.612,899.67 964.607,899.672C964.601,899.674 964.596,899.676 964.59,899.678C964.585,899.68 964.58,899.682 964.574,899.684C964.569,899.686 964.563,899.688 964.558,899.69C964.552,899.692 964.547,899.694 964.541,899.696C964.536,899.698 964.531,899.699 964.525,899.701C964.52,899.703 964.514,899.705 964.509,899.707C964.503,899.709 964.498,899.71 964.492,899.712C964.487,899.714 964.481,899.716 964.476,899.717C964.47,899.719 964.465,899.721 964.459,899.722C964.454,899.724 964.448,899.726 964.443,899.727C964.437,899.729 964.432,899.731 964.426,899.732C964.421,899.734 964.415,899.736 964.41,899.737C964.404,899.739 964.399,899.74 964.393,899.742C964.388,899.743 964.382,899.745 964.377,899.746C964.371,899.748 964.366,899.749 964.36,899.751C964.355,899.752 964.349,899.754 964.344,899.755C964.338,899.757 964.333,899.758 964.327,899.759C964.322,899.761 964.316,899.762 964.311,899.763C964.305,899.765 964.3,899.766 964.294,899.768C964.289,899.769 964.283,899.77 964.278,899.771C964.272,899.773 964.267,899.774 964.261,899.775C964.256,899.776 964.25,899.778 964.245,899.779C964.239,899.78 964.234,899.781 964.228,899.783C964.222,899.784 964.217,899.785 964.211,899.786C964.206,899.787 964.2,899.788 964.195,899.789C964.189,899.79 964.184,899.792 964.178,899.793C964.173,899.794 964.167,899.795 964.162,899.796C964.156,899.797 964.134,899.801 964.128,899.802C964.123,899.803 964.117,899.804 964.112,899.805C964.106,899.806 964.101,899.806 964.095,899.807C964.09,899.808 964.084,899.809 964.078,899.81C964.073,899.811 964.067,899.812 964.062,899.813C964.056,899.813 964.051,899.814 964.045,899.815C964.04,899.816 964.034,899.816 964.029,899.817C964.023,899.818 964.018,899.819 964.012,899.819C964.006,899.82 964.001,899.821 963.995,899.822C963.99,899.822 963.984,899.823 963.979,899.824C963.973,899.824 963.968,899.825 963.962,899.825C963.957,899.826 963.951,899.827 963.945,899.827C963.94,899.828 963.934,899.828 963.929,899.829C963.923,899.829 963.918,899.83 963.912,899.831C963.907,899.831 963.901,899.831 963.896,899.832C963.89,899.832 963.885,899.833 963.879,899.833C963.873,899.834 963.868,899.834 963.862,899.835C963.857,899.835 963.851,899.835 963.846,899.836C963.84,899.836 963.835,899.837 963.829,899.837C963.824,899.837 963.818,899.838 963.813,899.838C963.807,899.838 963.802,899.838 963.796,899.839L963.779,899.839C963.774,899.84 963.768,899.84 963.763,899.84C963.757,899.84 963.752,899.841 963.746,899.841L963.713,899.841C963.708,899.842 963.702,899.842 963.697,899.842L963.664,899.842Z" />
        <path d="M958.976,888.6L958.861,888.6C958.844,888.6 958.828,888.599 958.811,888.599C958.795,888.598 958.729,888.594 958.713,888.593C958.696,888.592 958.68,888.591 958.664,888.589C958.647,888.588 958.631,888.586 958.615,888.584C958.599,888.582 958.582,888.58 958.566,888.578C958.55,888.576 958.534,888.574 958.517,888.572C958.501,888.569 958.485,888.567 958.469,888.564C958.453,888.561 958.437,888.559 958.421,888.556C958.405,888.553 958.389,888.55 958.373,888.546C958.357,888.543 958.341,888.54 958.325,888.536C958.309,888.533 958.293,888.529 958.277,888.525C958.261,888.521 958.245,888.517 958.23,888.513C958.214,888.509 958.198,888.505 958.183,888.501C958.167,888.496 958.151,888.492 958.136,888.487C958.12,888.482 958.104,888.478 958.089,888.473C958.073,888.468 958.058,888.463 958.043,888.458C958.027,888.452 958.012,888.447 957.997,888.442C957.981,888.436 957.966,888.43 957.951,888.425C957.936,888.419 957.92,888.413 957.905,888.407C957.89,888.401 957.875,888.395 957.86,888.388C957.845,888.382 957.83,888.376 957.815,888.369C957.8,888.363 957.786,888.356 957.771,888.349C957.756,888.342 957.741,888.335 957.727,888.328C957.712,888.321 957.698,888.314 957.683,888.307C957.669,888.299 957.654,888.292 957.64,888.284C957.625,888.277 957.611,888.269 957.597,888.261C957.583,888.253 957.568,888.245 957.554,888.237C957.54,888.229 957.526,888.221 957.512,888.212C957.498,888.204 957.484,888.195 957.47,888.187C957.457,888.178 957.443,888.169 957.429,888.16C957.416,888.151 957.402,888.142 957.388,888.133C957.375,888.124 957.361,888.115 957.348,888.105C957.335,888.096 957.321,888.087 957.308,888.077C957.295,888.067 957.282,888.057 957.269,888.048C957.256,888.038 957.243,888.028 957.23,888.018C957.217,888.007 957.204,887.997 957.192,887.987C957.179,887.976 957.166,887.966 957.154,887.955C957.141,887.945 957.129,887.934 957.117,887.923C957.104,887.912 957.092,887.901 957.08,887.89C957.068,887.879 957.056,887.868 957.044,887.856C957.032,887.845 957.02,887.834 957.008,887.822C956.996,887.811 956.985,887.799 956.973,887.787C956.961,887.775 956.95,887.763 956.939,887.751C956.927,887.739 956.916,887.727 956.905,887.715C956.894,887.703 956.882,887.69 956.872,887.678C956.861,887.665 956.85,887.653 956.839,887.64C956.828,887.627 956.818,887.614 956.807,887.601C956.796,887.588 956.786,887.575 956.776,887.562C956.765,887.549 956.755,887.536 956.745,887.522C956.735,887.509 956.725,887.495 956.715,887.482C956.705,887.468 956.696,887.454 956.686,887.441C956.676,887.427 956.667,887.413 956.657,887.399C956.648,887.385 956.639,887.37 956.63,887.356C956.62,887.342 956.611,887.328 956.602,887.313C956.594,887.299 956.585,887.284 956.576,887.269C956.567,887.255 956.559,887.24 956.55,887.225C956.542,887.21 956.534,887.195 956.526,887.18C956.518,887.165 956.509,887.149 956.502,887.134C956.494,887.119 956.486,887.103 956.478,887.088C956.471,887.072 956.463,887.057 956.456,887.041C956.448,887.025 956.441,887.009 956.434,886.993C956.427,886.977 956.42,886.961 956.413,886.945C956.404,886.924 956.395,886.902 956.387,886.88C956.378,886.859 956.37,886.837 956.362,886.815C956.354,886.794 956.347,886.772 956.339,886.75C956.332,886.728 956.325,886.706 956.318,886.684C956.311,886.663 956.305,886.641 956.299,886.619C956.293,886.597 956.287,886.575 956.281,886.553C956.276,886.531 956.27,886.509 956.265,886.487C956.26,886.465 956.256,886.443 956.251,886.42C956.247,886.398 956.243,886.376 956.239,886.354C956.235,886.332 956.231,886.31 956.228,886.288C956.225,886.266 956.222,886.244 956.219,886.221C956.216,886.199 956.214,886.177 956.211,886.155C956.209,886.133 956.207,886.111 956.206,886.089C956.204,886.067 956.203,886.044 956.202,886.022C956.201,886 956.2,885.978 956.199,885.956C956.199,885.934 956.198,885.912 956.198,885.89C956.198,885.868 956.199,885.846 956.199,885.824C956.2,885.802 956.201,885.78 956.202,885.758C956.203,885.736 956.204,885.714 956.206,885.693C956.207,885.671 956.209,885.649 956.211,885.627C956.213,885.605 956.216,885.584 956.218,885.562C956.221,885.54 956.224,885.519 956.227,885.497C956.23,885.476 956.234,885.454 956.237,885.433C956.241,885.411 956.245,885.39 956.249,885.368C956.253,885.347 956.258,885.326 956.262,885.304C956.267,885.283 956.272,885.262 956.277,885.241C956.282,885.22 956.288,885.199 956.294,885.178C956.299,885.157 956.305,885.136 956.311,885.115C956.318,885.094 956.324,885.074 956.331,885.053C956.337,885.032 956.344,885.012 956.352,884.991C956.359,884.971 956.366,884.951 956.374,884.93C956.381,884.91 956.389,884.89 956.397,884.87C956.406,884.85 956.414,884.83 956.423,884.81C956.431,884.79 956.44,884.77 956.449,884.75C956.458,884.731 956.468,884.711 956.477,884.692C956.487,884.672 956.496,884.653 956.507,884.633C956.517,884.614 956.527,884.595 956.537,884.576C956.548,884.557 956.558,884.538 956.569,884.519C956.58,884.501 956.592,884.482 956.603,884.464C956.614,884.445 956.626,884.427 956.638,884.408C956.65,884.39 956.662,884.372 956.674,884.354C956.686,884.336 956.699,884.318 956.712,884.301C956.724,884.283 956.737,884.265 956.751,884.248C956.764,884.231 956.777,884.213 956.791,884.196C956.804,884.179 956.818,884.162 956.832,884.145C956.846,884.129 956.861,884.112 956.875,884.096C956.89,884.079 956.904,884.063 956.919,884.047C956.934,884.031 956.949,884.015 956.964,883.999C956.98,883.983 956.995,883.967 957.011,883.952C957.027,883.936 957.043,883.921 957.059,883.906C957.075,883.891 957.091,883.876 957.108,883.861C957.125,883.847 957.141,883.832 957.158,883.818C957.175,883.803 957.193,883.789 957.21,883.775C957.227,883.761 957.245,883.748 957.263,883.734C957.28,883.72 957.298,883.707 957.317,883.694C957.335,883.681 957.353,883.668 957.372,883.655C957.39,883.642 957.409,883.63 957.428,883.617C957.447,883.605 957.466,883.593 957.485,883.581C957.505,883.569 957.524,883.558 957.544,883.546C957.564,883.535 957.584,883.523 957.604,883.512C957.624,883.501 957.644,883.491 957.664,883.48C957.685,883.47 957.706,883.459 957.726,883.449C957.747,883.439 957.768,883.429 957.789,883.42C957.811,883.41 957.832,883.401 957.854,883.392C957.963,883.345 958.071,883.298 958.179,883.25C958.287,883.202 958.395,883.153 958.502,883.103C958.608,883.053 958.715,883.003 958.82,882.951C958.926,882.899 959.031,882.847 959.135,882.793C959.239,882.74 959.343,882.685 959.446,882.63C959.549,882.574 959.651,882.518 959.753,882.461C959.855,882.404 959.956,882.346 960.056,882.287C960.156,882.229 960.256,882.169 960.355,882.108C960.454,882.048 960.553,881.987 960.65,881.924C960.748,881.862 960.845,881.799 960.942,881.735C961.038,881.671 961.134,881.607 961.229,881.541C961.324,881.476 961.418,881.409 961.512,881.342C961.605,881.275 961.698,881.207 961.79,881.139C961.883,881.07 961.974,881 962.065,880.93C962.156,880.86 962.246,880.789 962.335,880.717C962.424,880.645 962.513,880.573 962.601,880.499C962.689,880.426 962.776,880.352 962.862,880.277C962.949,880.202 963.034,880.127 963.119,880.05C963.204,879.974 963.289,879.897 963.372,879.819C963.456,879.742 963.538,879.663 963.62,879.584C963.702,879.505 963.783,879.425 963.864,879.344C963.944,879.264 964.024,879.182 964.103,879.1C964.182,879.019 964.26,878.936 964.337,878.853C964.414,878.769 964.491,878.685 964.567,878.601C964.642,878.516 964.717,878.431 964.791,878.345C964.866,878.259 964.939,878.172 965.011,878.085C965.084,877.998 965.156,877.91 965.227,877.821C965.298,877.733 965.368,877.644 965.437,877.554C965.506,877.464 965.575,877.374 965.642,877.283C965.71,877.192 965.777,877.1 965.843,877.008C965.909,876.916 965.974,876.823 966.038,876.73C966.102,876.637 966.166,876.543 966.228,876.448C966.291,876.354 966.353,876.259 966.414,876.163C966.474,876.068 966.534,875.971 966.594,875.875C966.653,875.778 966.711,875.681 966.768,875.583C966.826,875.485 966.882,875.387 966.938,875.288C966.994,875.189 967.048,875.09 967.102,874.99C967.156,874.89 967.209,874.79 967.261,874.689C967.313,874.588 967.364,874.487 967.414,874.385C967.465,874.284 967.514,874.181 967.563,874.078C967.611,873.976 967.658,873.872 967.705,873.769C967.752,873.665 967.797,873.561 967.842,873.456C967.887,873.352 967.931,873.247 967.973,873.141C968.016,873.036 968.058,872.93 968.099,872.823C968.14,872.717 968.18,872.61 968.219,872.503C968.258,872.396 968.296,872.288 968.334,872.18C968.371,872.072 968.407,871.964 968.442,871.855C968.477,871.746 968.512,871.637 968.545,871.527C968.578,871.418 968.611,871.308 968.642,871.197C968.673,871.087 968.704,870.976 968.733,870.865C968.762,870.754 968.791,870.643 968.818,870.531C968.845,870.419 968.872,870.307 968.897,870.195C968.922,870.083 968.947,869.97 968.97,869.857C968.993,869.744 969.016,869.63 969.037,869.517C969.058,869.403 969.078,869.289 969.097,869.175C969.117,869.06 969.135,868.946 969.152,868.831C969.169,868.716 969.185,868.601 969.2,868.485C969.215,868.37 969.229,868.254 969.242,868.138C969.255,868.022 969.267,867.906 969.278,867.79C969.289,867.673 969.299,867.557 969.307,867.44C969.316,867.323 969.324,867.205 969.33,867.088C969.337,866.971 969.342,866.853 969.346,866.735C969.351,866.617 969.354,866.499 969.356,866.381C969.359,866.263 969.36,866.144 969.36,866.025C969.36,865.907 969.359,865.788 969.356,865.67C969.354,865.552 969.351,865.434 969.346,865.316C969.342,865.198 969.337,865.08 969.33,864.963C969.324,864.845 969.316,864.728 969.307,864.611C969.299,864.494 969.289,864.378 969.278,864.261C969.267,864.145 969.255,864.028 969.242,863.912C969.229,863.796 969.215,863.681 969.2,863.565C969.185,863.45 969.169,863.335 969.152,863.22C969.135,863.105 969.117,862.99 969.097,862.876C969.078,862.762 969.058,862.648 969.037,862.534C969.016,862.42 968.993,862.307 968.97,862.194C968.947,862.081 968.922,861.968 968.897,861.856C968.872,861.743 968.845,861.631 968.818,861.519C968.791,861.408 968.762,861.296 968.733,861.185C968.704,861.074 968.673,860.964 968.642,860.853C968.611,860.743 968.578,860.633 968.545,860.523C968.512,860.414 968.477,860.305 968.442,860.196C968.407,860.087 968.371,859.979 968.334,859.87C968.296,859.762 968.258,859.655 968.219,859.548C968.18,859.44 968.14,859.334 968.099,859.227C968.058,859.121 968.016,859.015 967.973,858.91C967.931,858.804 967.887,858.699 967.842,858.594C967.797,858.49 967.752,858.386 967.705,858.282C967.658,858.178 967.611,858.075 967.563,857.972C967.514,857.869 967.465,857.767 967.414,857.665C967.364,857.563 967.313,857.462 967.261,857.361C967.209,857.26 967.156,857.16 967.102,857.06C967.048,856.96 966.994,856.861 966.938,856.762C966.882,856.664 966.826,856.565 966.768,856.467C966.711,856.37 966.653,856.273 966.594,856.176C966.534,856.079 966.474,855.983 966.414,855.887C966.353,855.792 966.291,855.697 966.228,855.602C966.166,855.508 966.102,855.414 966.038,855.321C965.974,855.227 965.909,855.135 965.843,855.042C965.777,854.95 965.71,854.859 965.642,854.768C965.575,854.677 965.506,854.586 965.437,854.497C965.368,854.407 965.298,854.318 965.227,854.229C965.156,854.141 965.084,854.053 965.011,853.966C964.939,853.879 964.866,853.792 964.791,853.706C964.717,853.62 964.642,853.535 964.567,853.45C964.491,853.365 964.414,853.281 964.337,853.198C964.26,853.115 964.182,853.032 964.103,852.95C964.024,852.868 963.944,852.787 963.864,852.706C963.783,852.626 963.702,852.546 963.62,852.467C963.538,852.388 963.456,852.309 963.372,852.231C963.289,852.154 963.204,852.077 963.119,852C963.034,851.924 962.949,851.848 962.862,851.774C962.776,851.699 962.689,851.625 962.601,851.551C962.513,851.478 962.424,851.405 962.335,851.334C962.246,851.262 962.156,851.191 962.065,851.121C961.974,851.05 961.883,850.981 961.79,850.912C961.698,850.843 961.605,850.776 961.512,850.708C961.418,850.641 961.324,850.575 961.229,850.51C961.134,850.444 961.038,850.379 960.942,850.315C960.845,850.252 960.748,850.189 960.65,850.126C960.553,850.064 960.454,850.003 960.355,849.942C960.256,849.882 960.156,849.822 960.056,849.763C959.956,849.705 959.855,849.647 959.753,849.59C959.651,849.533 959.549,849.476 959.446,849.421C959.343,849.366 959.239,849.311 959.135,849.258C959.031,849.204 958.926,849.152 958.82,849.1C958.715,849.048 958.608,848.997 958.502,848.948C958.395,848.898 958.287,848.849 958.179,848.801C958.071,848.753 957.963,848.705 957.854,848.659C957.832,848.65 957.811,848.641 957.789,848.631C957.768,848.622 957.747,848.612 957.726,848.602C957.706,848.592 957.685,848.581 957.664,848.571C957.644,848.56 957.624,848.549 957.604,848.538C957.584,848.527 957.564,848.516 957.544,848.505C957.524,848.493 957.505,848.482 957.485,848.47C957.466,848.458 957.447,848.446 957.428,848.433C957.409,848.421 957.39,848.409 957.372,848.396C957.353,848.383 957.335,848.37 957.317,848.357C957.298,848.344 957.28,848.33 957.263,848.317C957.245,848.303 957.227,848.289 957.21,848.276C957.193,848.262 957.175,848.247 957.158,848.233C957.141,848.219 957.125,848.204 957.108,848.189C957.091,848.175 957.075,848.16 957.059,848.145C957.043,848.13 957.027,848.114 957.011,848.099C956.995,848.083 956.98,848.068 956.964,848.052C956.949,848.036 956.934,848.02 956.919,848.004C956.904,847.988 956.89,847.972 956.875,847.955C956.861,847.939 956.846,847.922 956.832,847.905C956.818,847.889 956.804,847.872 956.791,847.854C956.777,847.837 956.764,847.82 956.751,847.803C956.737,847.785 956.724,847.768 956.712,847.75C956.699,847.732 956.686,847.715 956.674,847.697C956.662,847.679 956.65,847.661 956.638,847.642C956.626,847.624 956.614,847.606 956.603,847.587C956.592,847.569 956.58,847.55 956.569,847.531C956.558,847.512 956.548,847.494 956.537,847.475C956.527,847.456 956.517,847.436 956.507,847.417C956.496,847.398 956.487,847.379 956.477,847.359C956.468,847.34 956.458,847.32 956.449,847.3C956.44,847.281 956.431,847.261 956.423,847.241C956.414,847.221 956.406,847.201 956.397,847.181C956.389,847.161 956.381,847.141 956.374,847.12C956.366,847.1 956.359,847.08 956.352,847.059C956.344,847.039 956.337,847.018 956.331,846.997C956.324,846.977 956.318,846.956 956.311,846.935C956.305,846.914 956.299,846.894 956.294,846.873C956.288,846.852 956.282,846.831 956.277,846.81C956.272,846.788 956.267,846.767 956.262,846.746C956.258,846.725 956.253,846.703 956.249,846.682C956.245,846.661 956.241,846.639 956.237,846.618C956.234,846.596 956.23,846.575 956.227,846.553C956.224,846.532 956.221,846.51 956.218,846.488C956.216,846.467 956.213,846.445 956.211,846.423C956.209,846.401 956.207,846.38 956.206,846.358C956.204,846.336 956.203,846.314 956.202,846.292C956.201,846.27 956.2,846.248 956.199,846.226C956.199,846.204 956.198,846.182 956.198,846.16C956.198,846.138 956.199,846.116 956.199,846.094C956.2,846.072 956.201,846.05 956.202,846.028C956.203,846.006 956.204,845.984 956.206,845.962C956.207,845.94 956.209,845.917 956.211,845.895C956.214,845.873 956.216,845.851 956.219,845.829C956.222,845.807 956.225,845.785 956.228,845.763C956.231,845.74 956.235,845.718 956.239,845.696C956.243,845.674 956.247,845.652 956.251,845.63C956.256,845.608 956.26,845.586 956.265,845.564C956.27,845.542 956.276,845.52 956.281,845.497C956.287,845.476 956.293,845.454 956.299,845.432C956.305,845.41 956.311,845.388 956.318,845.366C956.325,845.344 956.332,845.322 956.339,845.3C956.347,845.278 956.354,845.257 956.362,845.235C956.37,845.213 956.378,845.191 956.387,845.17C956.395,845.148 956.404,845.126 956.413,845.105C956.422,845.083 956.432,845.062 956.441,845.041C956.451,845.02 956.461,844.999 956.471,844.978C956.481,844.957 956.491,844.937 956.502,844.916C956.512,844.896 956.523,844.875 956.534,844.855C956.545,844.835 956.556,844.816 956.568,844.796C956.579,844.776 956.591,844.757 956.603,844.737C956.614,844.718 956.627,844.699 956.639,844.68C956.651,844.661 956.664,844.642 956.676,844.624C956.689,844.605 956.702,844.587 956.715,844.569C956.728,844.551 956.742,844.533 956.755,844.515C956.769,844.497 956.783,844.48 956.797,844.462C956.811,844.445 956.825,844.428 956.839,844.411C956.853,844.394 956.868,844.377 956.883,844.36C956.897,844.344 956.912,844.327 956.927,844.311C956.943,844.295 956.958,844.279 956.973,844.263C956.989,844.248 957.004,844.232 957.02,844.217C957.036,844.201 957.052,844.186 957.068,844.171C957.084,844.157 957.1,844.142 957.117,844.127C957.133,844.113 957.15,844.099 957.167,844.085C957.183,844.07 957.2,844.057 957.218,844.043C957.235,844.029 957.252,844.016 957.269,844.003C957.287,843.99 957.304,843.977 957.322,843.964C957.34,843.951 957.357,843.939 957.375,843.926C957.393,843.914 957.411,843.902 957.43,843.89C957.448,843.878 957.466,843.866 957.485,843.855C957.503,843.844 957.522,843.832 957.541,843.821C957.56,843.81 957.578,843.8 957.597,843.789C957.616,843.779 957.635,843.768 957.655,843.758C957.674,843.748 957.693,843.739 957.713,843.729C957.732,843.719 957.752,843.71 957.772,843.701C957.791,843.692 957.811,843.683 957.831,843.674C957.851,843.666 957.871,843.657 957.891,843.649C957.911,843.641 957.931,843.633 957.952,843.625C957.972,843.618 957.992,843.61 958.013,843.603C958.033,843.596 958.054,843.589 958.074,843.582C958.095,843.575 958.116,843.569 958.137,843.563C958.157,843.557 958.178,843.551 958.199,843.545C958.22,843.539 958.241,843.534 958.262,843.528C958.283,843.523 958.305,843.518 958.326,843.513C958.347,843.509 958.368,843.504 958.39,843.5C958.411,843.496 958.432,843.492 958.454,843.488C958.475,843.485 958.497,843.481 958.519,843.478C958.54,843.475 958.562,843.472 958.583,843.469C958.605,843.467 958.627,843.464 958.649,843.462C958.67,843.46 958.692,843.458 958.714,843.456C958.736,843.455 958.758,843.453 958.78,843.452C958.802,843.451 958.823,843.451 958.845,843.45C958.867,843.449 958.889,843.449 958.911,843.449C958.933,843.449 958.956,843.449 958.978,843.45C959,843.45 959.022,843.451 959.044,843.452C959.066,843.453 959.088,843.455 959.11,843.456C959.132,843.458 959.154,843.46 959.177,843.462C959.199,843.464 959.221,843.467 959.243,843.47C959.265,843.472 959.287,843.475 959.309,843.479C959.331,843.482 959.354,843.486 959.376,843.489C959.398,843.493 959.42,843.497 959.442,843.502C959.464,843.506 959.486,843.511 959.508,843.516C959.53,843.521 959.552,843.526 959.574,843.532C959.596,843.538 959.618,843.544 959.64,843.55C959.662,843.556 959.684,843.562 959.706,843.569C959.728,843.576 959.75,843.583 959.772,843.59C959.793,843.598 959.815,843.605 959.837,843.613C959.859,843.621 959.88,843.629 959.902,843.638C959.924,843.647 959.945,843.655 959.967,843.665C960.107,843.724 960.247,843.785 960.386,843.846C960.526,843.908 960.664,843.971 960.801,844.036C960.939,844.1 961.075,844.165 961.211,844.232C961.347,844.299 961.482,844.366 961.617,844.435C961.751,844.504 961.884,844.574 962.017,844.645C962.149,844.717 962.281,844.789 962.412,844.862C962.543,844.936 962.673,845.011 962.802,845.086C962.932,845.162 963.06,845.239 963.188,845.317C963.315,845.395 963.442,845.474 963.568,845.554C963.694,845.634 963.819,845.715 963.943,845.797C964.067,845.879 964.19,845.963 964.312,846.047C964.435,846.131 964.556,846.217 964.677,846.303C964.797,846.389 964.917,846.477 965.035,846.565C965.154,846.654 965.272,846.743 965.389,846.834C965.506,846.924 965.622,847.016 965.737,847.108C965.852,847.201 965.966,847.294 966.079,847.388C966.192,847.483 966.305,847.578 966.416,847.675C966.527,847.771 966.637,847.868 966.747,847.966C966.856,848.065 966.965,848.164 967.072,848.264C967.18,848.364 967.286,848.465 967.392,848.567C967.497,848.669 967.602,848.772 967.705,848.876C967.809,848.979 967.911,849.084 968.013,849.19C968.114,849.295 968.215,849.402 968.315,849.509C968.414,849.616 968.513,849.724 968.61,849.833C968.708,849.942 968.804,850.052 968.9,850.163C968.995,850.273 969.09,850.385 969.183,850.497C969.277,850.61 969.369,850.723 969.46,850.837C969.552,850.951 969.642,851.065 969.731,851.181C969.82,851.297 969.908,851.413 969.996,851.53C970.083,851.647 970.169,851.765 970.254,851.884C970.339,852.002 970.422,852.122 970.505,852.242C970.588,852.362 970.67,852.483 970.75,852.605C970.831,852.726 970.91,852.849 970.989,852.972C971.067,853.095 971.144,853.219 971.221,853.343C971.297,853.467 971.372,853.593 971.446,853.719C971.52,853.844 971.592,853.971 971.664,854.098C971.736,854.225 971.806,854.353 971.876,854.482C971.945,854.61 972.013,854.74 972.08,854.869C972.147,854.999 972.213,855.13 972.278,855.261C972.343,855.392 972.406,855.524 972.468,855.656C972.531,855.788 972.592,855.921 972.652,856.055C972.712,856.188 972.771,856.322 972.828,856.457C972.886,856.592 972.942,856.727 972.998,856.863C973.053,856.999 973.107,857.135 973.16,857.272C973.212,857.409 973.264,857.547 973.314,857.685C973.365,857.823 973.414,857.961 973.462,858.1C973.509,858.239 973.556,858.379 973.602,858.519C973.647,858.659 973.691,858.8 973.734,858.941C973.777,859.082 973.818,859.224 973.859,859.366C973.899,859.508 973.938,859.65 973.976,859.793C974.014,859.936 974.05,860.08 974.085,860.223C974.121,860.367 974.155,860.512 974.187,860.656C974.22,860.801 974.251,860.946 974.281,861.092C974.311,861.237 974.34,861.383 974.367,861.53C974.395,861.676 974.421,861.823 974.445,861.97C974.47,862.117 974.494,862.265 974.516,862.413C974.538,862.561 974.559,862.709 974.578,862.858C974.597,863.006 974.615,863.155 974.632,863.305C974.649,863.454 974.664,863.604 974.678,863.754C974.692,863.904 974.704,864.054 974.716,864.204C974.727,864.355 974.737,864.506 974.745,864.657C974.754,864.808 974.761,864.96 974.766,865.112C974.772,865.263 974.776,865.415 974.779,865.568C974.782,865.72 974.783,865.873 974.783,866.025C974.783,866.178 974.782,866.331 974.779,866.483C974.776,866.635 974.772,866.787 974.766,866.939C974.761,867.091 974.754,867.242 974.745,867.394C974.737,867.545 974.727,867.696 974.716,867.846C974.704,867.997 974.692,868.147 974.678,868.297C974.664,868.447 974.649,868.597 974.632,868.746C974.615,868.896 974.597,869.044 974.578,869.193C974.559,869.342 974.538,869.49 974.516,869.638C974.494,869.786 974.47,869.933 974.445,870.081C974.421,870.228 974.395,870.375 974.367,870.521C974.34,870.667 974.311,870.813 974.281,870.959C974.251,871.104 974.22,871.25 974.187,871.394C974.155,871.539 974.121,871.683 974.085,871.827C974.05,871.971 974.014,872.115 973.976,872.258C973.938,872.401 973.899,872.543 973.859,872.685C973.818,872.827 973.777,872.969 973.734,873.11C973.691,873.251 973.647,873.392 973.602,873.532C973.556,873.672 973.509,873.811 973.462,873.95C973.414,874.09 973.365,874.228 973.314,874.366C973.264,874.504 973.212,874.642 973.16,874.779C973.107,874.916 973.053,875.052 972.998,875.188C972.942,875.324 972.886,875.459 972.828,875.594C972.771,875.728 972.712,875.862 972.652,875.996C972.592,876.129 972.531,876.262 972.468,876.395C972.406,876.527 972.343,876.659 972.278,876.79C972.213,876.921 972.147,877.051 972.08,877.181C972.013,877.311 971.945,877.44 971.876,877.569C971.806,877.697 971.736,877.825 971.664,877.952C971.592,878.08 971.52,878.206 971.446,878.332C971.372,878.458 971.297,878.583 971.221,878.708C971.144,878.832 971.067,878.956 970.989,879.079C970.91,879.202 970.831,879.324 970.75,879.446C970.67,879.568 970.588,879.689 970.505,879.809C970.422,879.929 970.339,880.048 970.254,880.167C970.169,880.286 970.083,880.404 969.996,880.521C969.908,880.638 969.82,880.754 969.731,880.87C969.642,880.985 969.552,881.1 969.46,881.214C969.369,881.328 969.277,881.441 969.183,881.553C969.09,881.666 968.995,881.777 968.9,881.888C968.804,881.999 968.708,882.108 968.61,882.217C968.513,882.326 968.414,882.434 968.315,882.542C968.215,882.649 968.114,882.755 968.013,882.861C967.911,882.966 967.809,883.071 967.705,883.175C967.602,883.279 967.497,883.382 967.392,883.483C967.286,883.585 967.18,883.686 967.072,883.787C966.965,883.887 966.856,883.986 966.747,884.084C966.637,884.182 966.527,884.28 966.416,884.376C966.305,884.472 966.192,884.568 966.079,884.662C965.966,884.757 965.852,884.85 965.737,884.942C965.622,885.035 965.506,885.126 965.389,885.217C965.272,885.307 965.154,885.397 965.035,885.485C964.917,885.574 964.797,885.661 964.677,885.748C964.556,885.834 964.435,885.919 964.312,886.004C964.19,886.088 964.067,886.171 963.943,886.254C963.819,886.336 963.694,886.417 963.568,886.497C963.442,886.577 963.315,886.656 963.188,886.734C963.06,886.812 962.932,886.889 962.802,886.964C962.673,887.04 962.543,887.115 962.412,887.188C962.281,887.262 962.149,887.334 962.017,887.405C961.884,887.476 961.751,887.547 961.617,887.615C961.482,887.684 961.347,887.752 961.211,887.819C961.075,887.885 960.939,887.951 960.801,888.015C960.664,888.079 960.526,888.142 960.386,888.204C960.247,888.266 960.107,888.327 959.967,888.386C959.961,888.389 959.956,888.391 959.951,888.393C959.945,888.395 959.94,888.398 959.935,888.4C959.929,888.402 959.924,888.404 959.918,888.406C959.913,888.408 959.908,888.411 959.902,888.413C959.897,888.415 959.875,888.423 959.87,888.425C959.864,888.427 959.859,888.429 959.853,888.431C959.848,888.433 959.842,888.435 959.837,888.437C959.832,888.439 959.826,888.441 959.821,888.443C959.815,888.445 959.81,888.447 959.804,888.449C959.799,888.451 959.793,888.453 959.788,888.455C959.783,888.456 959.777,888.458 959.772,888.46C959.766,888.462 959.761,888.464 959.755,888.466C959.75,888.467 959.744,888.469 959.739,888.471C959.733,888.473 959.728,888.474 959.722,888.476C959.717,888.478 959.711,888.479 959.706,888.481C959.701,888.483 959.695,888.484 959.69,888.486C959.684,888.488 959.679,888.489 959.673,888.491C959.668,888.493 959.662,888.494 959.657,888.496C959.651,888.497 959.646,888.499 959.64,888.5C959.635,888.502 959.629,888.503 959.624,888.505C959.618,888.507 959.613,888.508 959.607,888.509C959.602,888.511 959.596,888.512 959.591,888.514C959.585,888.515 959.58,888.517 959.574,888.518C959.569,888.519 959.563,888.521 959.557,888.522C959.552,888.523 959.546,888.525 959.541,888.526C959.535,888.527 959.53,888.529 959.524,888.53C959.519,888.531 959.513,888.533 959.508,888.534C959.502,888.535 959.497,888.536 959.491,888.538C959.486,888.539 959.48,888.54 959.475,888.541C959.469,888.542 959.464,888.543 959.458,888.545C959.453,888.546 959.447,888.547 959.441,888.548C959.436,888.549 959.43,888.55 959.425,888.551C959.419,888.552 959.414,888.553 959.408,888.554C959.403,888.555 959.397,888.556 959.392,888.557C959.386,888.558 959.364,888.562 959.358,888.563C959.353,888.564 959.347,888.565 959.342,888.566C959.336,888.567 959.331,888.568 959.325,888.569C959.32,888.569 959.314,888.57 959.309,888.571C959.303,888.572 959.297,888.573 959.292,888.573C959.286,888.574 959.281,888.575 959.275,888.576C959.27,888.577 959.264,888.577 959.259,888.578C959.253,888.579 959.248,888.579 959.242,888.58C959.237,888.581 959.231,888.581 959.225,888.582C959.22,888.583 959.214,888.583 959.209,888.584C959.203,888.585 959.198,888.585 959.192,888.586C959.187,888.586 959.181,888.587 959.176,888.587C959.17,888.588 959.164,888.589 959.159,888.589C959.153,888.59 959.148,888.59 959.142,888.591C959.137,888.591 959.131,888.591 959.126,888.592C959.12,888.592 959.115,888.593 959.109,888.593C959.104,888.594 959.098,888.594 959.092,888.594C959.087,888.595 959.081,888.595 959.076,888.595C959.07,888.596 959.065,888.596 959.059,888.596C959.054,888.597 959.048,888.597 959.043,888.597C959.037,888.597 959.032,888.598 959.026,888.598C959.021,888.598 959.015,888.598 959.009,888.599L958.993,888.599C958.987,888.599 958.982,888.599 958.976,888.6Z" />
        <path d="M954.299,877.571L954.2,877.571C954.183,877.57 954.167,877.57 954.15,877.569C954.134,877.569 954.117,877.568 954.101,877.567C954.085,877.566 954.068,877.565 954.052,877.564C954.036,877.563 954.019,877.561 954.003,877.56C953.987,877.558 953.97,877.557 953.954,877.555C953.938,877.553 953.921,877.551 953.905,877.549C953.889,877.547 953.873,877.545 953.857,877.542C953.84,877.54 953.824,877.538 953.808,877.535C953.792,877.532 953.728,877.52 953.712,877.517C953.696,877.514 953.68,877.51 953.664,877.507C953.648,877.503 953.632,877.5 953.616,877.496C953.6,877.492 953.585,877.488 953.569,877.484C953.553,877.48 953.537,877.476 953.522,877.471C953.506,877.467 953.49,877.462 953.475,877.458C953.459,877.453 953.444,877.448 953.428,877.443C953.413,877.438 953.397,877.433 953.382,877.428C953.366,877.423 953.351,877.418 953.336,877.412C953.32,877.407 953.305,877.401 953.29,877.395C953.275,877.39 953.26,877.384 953.245,877.378C953.229,877.372 953.214,877.365 953.199,877.359C953.184,877.353 953.169,877.346 953.155,877.34C953.14,877.333 953.125,877.327 953.11,877.32C953.095,877.313 953.081,877.306 953.066,877.299C953.051,877.292 953.037,877.284 953.022,877.277C953.008,877.27 952.993,877.262 952.979,877.255C952.965,877.247 952.95,877.239 952.936,877.231C952.922,877.224 952.908,877.216 952.894,877.207C952.879,877.199 952.865,877.191 952.851,877.183C952.837,877.174 952.824,877.166 952.81,877.157C952.796,877.148 952.782,877.14 952.768,877.131C952.755,877.122 952.741,877.113 952.728,877.104C952.714,877.094 952.701,877.085 952.687,877.076C952.674,877.066 952.661,877.057 952.648,877.047C952.634,877.037 952.621,877.028 952.608,877.018C952.595,877.008 952.582,876.998 952.569,876.988C952.556,876.978 952.544,876.967 952.531,876.957C952.518,876.946 952.506,876.936 952.493,876.925C952.481,876.915 952.468,876.904 952.456,876.893C952.444,876.882 952.431,876.871 952.419,876.86C952.407,876.849 952.395,876.838 952.383,876.826C952.371,876.815 952.359,876.804 952.347,876.792C952.336,876.78 952.324,876.769 952.312,876.757C952.301,876.745 952.289,876.733 952.278,876.721C952.267,876.709 952.255,876.697 952.244,876.685C952.233,876.672 952.222,876.66 952.211,876.647C952.2,876.635 952.189,876.622 952.178,876.609C952.168,876.597 952.157,876.584 952.146,876.571C952.136,876.558 952.125,876.545 952.115,876.532C952.105,876.518 952.095,876.505 952.084,876.492C952.074,876.478 952.064,876.465 952.055,876.451C952.045,876.437 952.035,876.424 952.025,876.41C952.016,876.396 952.006,876.382 951.997,876.368C951.987,876.354 951.978,876.34 951.969,876.325C951.96,876.311 951.951,876.297 951.942,876.282C951.933,876.268 951.924,876.253 951.915,876.238C951.907,876.224 951.898,876.209 951.89,876.194C951.881,876.179 951.873,876.164 951.865,876.149C951.857,876.134 951.849,876.118 951.841,876.103C951.833,876.088 951.825,876.072 951.817,876.057C951.81,876.041 951.802,876.025 951.795,876.01C951.788,875.994 951.78,875.978 951.773,875.962C951.766,875.946 951.759,875.93 951.752,875.914C951.743,875.892 951.734,875.871 951.726,875.849C951.717,875.827 951.709,875.805 951.701,875.784C951.693,875.762 951.686,875.74 951.678,875.718C951.671,875.697 951.664,875.675 951.657,875.653C951.651,875.631 951.644,875.609 951.638,875.587C951.632,875.565 951.626,875.543 951.62,875.521C951.615,875.499 951.609,875.477 951.604,875.455C951.599,875.433 951.595,875.411 951.59,875.389C951.586,875.367 951.582,875.345 951.578,875.322C951.574,875.3 951.571,875.278 951.567,875.256C951.564,875.234 951.561,875.212 951.558,875.19C951.555,875.168 951.553,875.146 951.551,875.123C951.549,875.101 951.547,875.079 951.545,875.057C951.544,875.035 951.542,875.013 951.541,874.991C951.54,874.969 951.539,874.947 951.539,874.925C951.538,874.903 951.538,874.88 951.538,874.859C951.538,874.836 951.538,874.815 951.539,874.793C951.539,874.771 951.54,874.749 951.541,874.727C951.542,874.705 951.544,874.683 951.545,874.661C951.547,874.639 951.549,874.618 951.551,874.596C951.553,874.574 951.555,874.552 951.558,874.531C951.561,874.509 951.564,874.487 951.567,874.466C951.57,874.444 951.574,874.423 951.577,874.401C951.581,874.38 951.585,874.359 951.589,874.337C951.593,874.316 951.598,874.295 951.602,874.273C951.607,874.252 951.612,874.231 951.617,874.21C951.623,874.189 951.628,874.168 951.634,874.147C951.64,874.126 951.646,874.105 951.652,874.084C951.658,874.064 951.664,874.043 951.671,874.022C951.678,874.002 951.685,873.981 951.692,873.961C951.699,873.94 951.707,873.92 951.714,873.9C951.722,873.879 951.73,873.859 951.738,873.839C951.746,873.819 951.755,873.799 951.763,873.779C951.772,873.759 951.781,873.739 951.79,873.72C951.799,873.7 951.808,873.681 951.818,873.661C951.828,873.642 951.837,873.622 951.847,873.603C951.857,873.584 951.868,873.565 951.878,873.546C951.889,873.527 951.899,873.508 951.91,873.489C951.921,873.47 951.933,873.452 951.944,873.433C951.956,873.415 951.967,873.396 951.979,873.378C951.991,873.36 952.003,873.342 952.015,873.324C952.028,873.306 952.04,873.288 952.053,873.271C952.066,873.253 952.079,873.235 952.092,873.218C952.105,873.201 952.119,873.183 952.132,873.166C952.146,873.149 952.16,873.132 952.174,873.116C952.188,873.099 952.202,873.082 952.217,873.066C952.231,873.049 952.246,873.033 952.261,873.017C952.276,873.001 952.291,872.985 952.306,872.969C952.321,872.953 952.337,872.938 952.353,872.922C952.369,872.907 952.385,872.892 952.401,872.877C952.417,872.861 952.433,872.847 952.45,872.832C952.466,872.817 952.483,872.803 952.5,872.788C952.517,872.774 952.534,872.76 952.552,872.746C952.569,872.732 952.587,872.718 952.605,872.705C952.622,872.691 952.64,872.678 952.659,872.665C952.677,872.651 952.695,872.638 952.714,872.626C952.732,872.613 952.751,872.6 952.77,872.588C952.789,872.576 952.808,872.564 952.827,872.552C952.847,872.54 952.866,872.528 952.886,872.517C952.906,872.505 952.926,872.494 952.946,872.483C952.966,872.472 952.986,872.461 953.007,872.451C953.027,872.44 953.048,872.43 953.068,872.42C953.089,872.41 953.11,872.4 953.132,872.39C953.153,872.381 953.174,872.372 953.196,872.362C953.236,872.346 953.275,872.328 953.315,872.311C953.354,872.293 953.393,872.276 953.432,872.257C953.471,872.239 953.51,872.221 953.548,872.202C953.587,872.183 953.625,872.164 953.663,872.144C953.701,872.125 953.739,872.105 953.776,872.085C953.814,872.064 953.851,872.044 953.888,872.023C953.926,872.002 953.962,871.981 953.999,871.96C954.036,871.938 954.072,871.917 954.108,871.894C954.144,871.872 954.18,871.85 954.216,871.827C954.251,871.805 954.287,871.782 954.322,871.758C954.357,871.735 954.392,871.711 954.427,871.688C954.461,871.664 954.496,871.639 954.53,871.615C954.564,871.591 954.598,871.566 954.632,871.541C954.665,871.516 954.699,871.49 954.732,871.465C954.765,871.439 954.798,871.413 954.83,871.387C954.863,871.361 954.895,871.334 954.927,871.307C954.959,871.281 954.991,871.254 955.023,871.226C955.054,871.199 955.085,871.172 955.116,871.144C955.147,871.116 955.178,871.088 955.209,871.059C955.239,871.031 955.269,871.002 955.299,870.974C955.329,870.945 955.359,870.916 955.388,870.886C955.417,870.857 955.446,870.827 955.475,870.797C955.504,870.767 955.532,870.737 955.56,870.707C955.589,870.676 955.617,870.646 955.644,870.615C955.672,870.584 955.699,870.553 955.726,870.521C955.753,870.49 955.78,870.458 955.807,870.427C955.833,870.395 955.859,870.363 955.885,870.33C955.911,870.298 955.937,870.266 955.962,870.233C955.987,870.2 956.012,870.167 956.037,870.134C956.061,870.101 956.086,870.067 956.11,870.034C956.134,870 956.158,869.966 956.181,869.932C956.205,869.898 956.228,869.864 956.25,869.829C956.273,869.795 956.296,869.76 956.318,869.725C956.34,869.691 956.362,869.656 956.384,869.62C956.405,869.585 956.427,869.549 956.447,869.514C956.468,869.478 956.489,869.442 956.509,869.406C956.53,869.37 956.55,869.334 956.569,869.297C956.589,869.261 956.608,869.224 956.627,869.188C956.646,869.151 956.665,869.114 956.683,869.077C956.702,869.04 956.72,869.002 956.737,868.965C956.755,868.927 956.772,868.89 956.789,868.852C956.806,868.814 956.823,868.776 956.839,868.738C956.855,868.699 956.871,868.661 956.887,868.623C956.903,868.584 956.918,868.545 956.933,868.507C956.948,868.468 956.963,868.429 956.977,868.39C956.991,868.351 957.005,868.311 957.019,868.272C957.032,868.232 957.045,868.193 957.058,868.153C957.071,868.114 957.083,868.074 957.096,868.034C957.108,867.994 957.12,867.954 957.131,867.913C957.142,867.873 957.154,867.833 957.164,867.792C957.175,867.752 957.185,867.711 957.195,867.67C957.205,867.629 957.215,867.588 957.224,867.547C957.233,867.506 957.242,867.465 957.251,867.424C957.259,867.383 957.267,867.341 957.275,867.3C957.283,867.258 957.29,867.217 957.297,867.175C957.304,867.133 957.311,867.091 957.317,867.049C957.323,867.008 957.329,866.966 957.335,866.923C957.34,866.881 957.345,866.839 957.35,866.797C957.355,866.754 957.359,866.712 957.363,866.669C957.367,866.627 957.371,866.584 957.374,866.542C957.377,866.499 957.38,866.456 957.382,866.413C957.384,866.37 957.386,866.328 957.388,866.284C957.39,866.241 957.391,866.198 957.392,866.155C957.392,866.112 957.393,866.069 957.393,866.025C957.393,865.982 957.392,865.939 957.392,865.896C957.391,865.852 957.39,865.809 957.388,865.766C957.386,865.723 957.384,865.68 957.382,865.638C957.38,865.595 957.377,865.552 957.374,865.509C957.371,865.466 957.367,865.424 957.363,865.381C957.359,865.339 957.355,865.296 957.35,865.254C957.345,865.212 957.34,865.17 957.335,865.127C957.329,865.085 957.323,865.043 957.317,865.001C957.311,864.959 957.304,864.918 957.297,864.876C957.29,864.834 957.283,864.793 957.275,864.751C957.267,864.71 957.259,864.668 957.251,864.627C957.242,864.586 957.233,864.544 957.224,864.503C957.215,864.462 957.205,864.422 957.195,864.381C957.185,864.34 957.175,864.299 957.164,864.259C957.154,864.218 957.142,864.178 957.131,864.138C957.12,864.097 957.108,864.057 957.096,864.017C957.083,863.977 957.071,863.937 957.058,863.898C957.045,863.858 957.032,863.818 957.019,863.779C957.005,863.74 956.991,863.7 956.977,863.661C956.963,863.622 956.948,863.583 956.933,863.544C956.918,863.505 956.903,863.467 956.887,863.428C956.871,863.39 956.855,863.351 956.839,863.313C956.823,863.275 956.806,863.237 956.789,863.199C956.772,863.161 956.755,863.124 956.737,863.086C956.72,863.049 956.702,863.011 956.683,862.974C956.665,862.937 956.646,862.9 956.627,862.863C956.608,862.826 956.589,862.79 956.569,862.753C956.55,862.717 956.53,862.681 956.509,862.645C956.489,862.609 956.468,862.573 956.447,862.537C956.427,862.501 956.405,862.466 956.384,862.431C956.362,862.395 956.34,862.36 956.318,862.325C956.296,862.291 956.273,862.256 956.25,862.221C956.228,862.187 956.205,862.153 956.181,862.119C956.158,862.085 956.134,862.051 956.11,862.017C956.086,861.983 956.061,861.95 956.037,861.917C956.012,861.884 955.987,861.851 955.962,861.818C955.937,861.785 955.911,861.753 955.885,861.72C955.859,861.688 955.833,861.656 955.807,861.624C955.78,861.592 955.753,861.561 955.726,861.529C955.699,861.498 955.672,861.467 955.644,861.436C955.617,861.405 955.589,861.375 955.56,861.344C955.532,861.314 955.504,861.284 955.475,861.254C955.446,861.224 955.417,861.194 955.388,861.165C955.359,861.135 955.329,861.106 955.299,861.077C955.269,861.048 955.239,861.02 955.209,860.991C955.178,860.963 955.147,860.935 955.116,860.907C955.085,860.879 955.054,860.852 955.023,860.824C954.991,860.797 954.959,860.77 954.927,860.743C954.895,860.717 954.863,860.69 954.83,860.664C954.798,860.638 954.765,860.612 954.732,860.586C954.699,860.561 954.665,860.535 954.632,860.51C954.598,860.485 954.564,860.46 954.53,860.436C954.496,860.411 954.461,860.387 954.427,860.363C954.392,860.339 954.357,860.316 954.322,860.293C954.287,860.269 954.251,860.246 954.216,860.224C954.18,860.201 954.144,860.178 954.108,860.156C954.072,860.134 954.036,860.113 953.999,860.091C953.962,860.07 953.926,860.049 953.888,860.028C953.851,860.007 953.814,859.986 953.776,859.966C953.739,859.946 953.701,859.926 953.663,859.907C953.625,859.887 953.587,859.868 953.548,859.849C953.51,859.83 953.471,859.812 953.432,859.794C953.393,859.775 953.354,859.758 953.315,859.74C953.275,859.722 953.236,859.705 953.196,859.688C953.174,859.679 953.153,859.67 953.132,859.66C953.11,859.651 953.089,859.641 953.068,859.631C953.048,859.621 953.027,859.61 953.007,859.6C952.986,859.589 952.966,859.579 952.946,859.568C952.926,859.557 952.906,859.545 952.886,859.534C952.866,859.523 952.847,859.511 952.827,859.499C952.808,859.487 952.789,859.475 952.77,859.463C952.751,859.45 952.732,859.438 952.714,859.425C952.695,859.412 952.677,859.399 952.659,859.386C952.64,859.373 952.622,859.36 952.605,859.346C952.587,859.333 952.569,859.319 952.552,859.305C952.534,859.291 952.517,859.277 952.5,859.263C952.483,859.248 952.466,859.234 952.45,859.219C952.433,859.204 952.417,859.189 952.401,859.174C952.385,859.159 952.369,859.144 952.353,859.128C952.337,859.113 952.321,859.097 952.306,859.082C952.291,859.066 952.276,859.05 952.261,859.034C952.246,859.018 952.231,859.001 952.217,858.985C952.202,858.969 952.188,858.952 952.174,858.935C952.16,858.918 952.146,858.901 952.132,858.884C952.119,858.867 952.105,858.85 952.092,858.833C952.079,858.815 952.066,858.798 952.053,858.78C952.04,858.762 952.028,858.745 952.015,858.727C952.003,858.709 951.991,858.691 951.979,858.672C951.967,858.654 951.956,858.636 951.944,858.617C951.933,858.599 951.921,858.58 951.91,858.561C951.899,858.543 951.889,858.524 951.878,858.505C951.868,858.486 951.857,858.467 951.847,858.448C951.837,858.428 951.828,858.409 951.818,858.39C951.808,858.37 951.799,858.351 951.79,858.331C951.781,858.311 951.772,858.291 951.763,858.271C951.755,858.252 951.746,858.232 951.738,858.212C951.73,858.191 951.722,858.171 951.714,858.151C951.707,858.131 951.699,858.11 951.692,858.09C951.685,858.07 951.678,858.049 951.671,858.028C951.664,858.008 951.658,857.987 951.652,857.966C951.646,857.945 951.64,857.925 951.634,857.904C951.628,857.883 951.623,857.862 951.617,857.841C951.612,857.82 951.607,857.798 951.602,857.777C951.598,857.756 951.593,857.735 951.589,857.713C951.585,857.692 951.581,857.671 951.577,857.649C951.574,857.628 951.57,857.606 951.567,857.585C951.564,857.563 951.561,857.542 951.558,857.52C951.555,857.498 951.553,857.476 951.551,857.455C951.549,857.433 951.547,857.411 951.545,857.389C951.544,857.368 951.542,857.346 951.541,857.324C951.54,857.302 951.539,857.28 951.539,857.258C951.538,857.236 951.538,857.214 951.538,857.192C951.538,857.17 951.538,857.148 951.539,857.126C951.539,857.104 951.54,857.082 951.541,857.06C951.542,857.038 951.544,857.016 951.545,856.994C951.547,856.971 951.549,856.949 951.551,856.927C951.553,856.905 951.555,856.883 951.558,856.861C951.561,856.839 951.564,856.817 951.567,856.794C951.571,856.772 951.574,856.75 951.578,856.728C951.582,856.706 951.586,856.684 951.59,856.662C951.595,856.64 951.599,856.618 951.604,856.596C951.609,856.574 951.615,856.552 951.62,856.53C951.626,856.508 951.632,856.486 951.638,856.464C951.644,856.442 951.651,856.42 951.657,856.398C951.664,856.376 951.671,856.354 951.678,856.332C951.686,856.311 951.693,856.289 951.701,856.267C951.709,856.245 951.717,856.224 951.726,856.202C951.734,856.18 951.743,856.159 951.752,856.137C951.761,856.116 951.771,856.094 951.78,856.073C951.79,856.052 951.8,856.031 951.81,856.01C951.82,855.989 951.83,855.968 951.841,855.948C951.851,855.927 951.862,855.907 951.873,855.887C951.884,855.867 951.895,855.847 951.907,855.827C951.918,855.807 951.93,855.788 951.942,855.768C951.954,855.749 951.966,855.73 951.978,855.711C951.99,855.692 952.003,855.673 952.016,855.654C952.028,855.636 952.041,855.617 952.055,855.599C952.068,855.581 952.081,855.563 952.095,855.545C952.108,855.527 952.122,855.509 952.136,855.492C952.15,855.475 952.164,855.457 952.178,855.44C952.193,855.423 952.207,855.406 952.222,855.39C952.237,855.373 952.252,855.357 952.267,855.341C952.282,855.324 952.297,855.308 952.313,855.293C952.328,855.277 952.344,855.261 952.359,855.246C952.375,855.231 952.391,855.215 952.407,855.2C952.423,855.185 952.44,855.171 952.456,855.156C952.473,855.142 952.489,855.127 952.506,855.113C952.523,855.099 952.54,855.085 952.557,855.072C952.574,855.058 952.591,855.044 952.609,855.031C952.626,855.018 952.643,855.005 952.661,854.992C952.679,854.979 952.697,854.967 952.715,854.954C952.733,854.942 952.751,854.93 952.769,854.918C952.787,854.906 952.806,854.895 952.824,854.883C952.843,854.872 952.861,854.86 952.88,854.849C952.899,854.838 952.918,854.828 952.937,854.817C952.956,854.807 952.975,854.796 952.994,854.786C953.013,854.776 953.033,854.766 953.052,854.757C953.071,854.747 953.091,854.738 953.111,854.729C953.13,854.72 953.15,854.711 953.17,854.702C953.19,854.693 953.21,854.685 953.23,854.677C953.25,854.669 953.27,854.661 953.291,854.653C953.311,854.645 953.331,854.638 953.352,854.631C953.372,854.623 953.393,854.616 953.413,854.61C953.434,854.603 953.455,854.597 953.475,854.59C953.496,854.584 953.517,854.578 953.538,854.572C953.559,854.567 953.58,854.561 953.601,854.556C953.622,854.551 953.643,854.546 953.665,854.541C953.686,854.536 953.707,854.532 953.728,854.528C953.75,854.524 953.771,854.52 953.793,854.516C953.814,854.512 953.836,854.509 953.857,854.506C953.879,854.502 953.9,854.5 953.922,854.497C953.944,854.494 953.965,854.492 953.987,854.49C954.009,854.488 954.031,854.486 954.052,854.484C954.074,854.483 954.096,854.481 954.118,854.48C954.14,854.479 954.162,854.478 954.184,854.478C954.206,854.477 954.228,854.477 954.25,854.477C954.272,854.477 954.294,854.477 954.316,854.478C954.338,854.478 954.36,854.479 954.382,854.48C954.404,854.481 954.426,854.483 954.448,854.484C954.47,854.486 954.492,854.488 954.514,854.49C954.536,854.492 954.559,854.495 954.581,854.498C954.603,854.501 954.625,854.504 954.647,854.507C954.669,854.51 954.691,854.514 954.713,854.518C954.735,854.522 954.757,854.526 954.779,854.53C954.802,854.535 954.824,854.54 954.846,854.545C954.868,854.55 954.89,854.555 954.912,854.561C954.934,854.566 954.956,854.572 954.977,854.578C954.999,854.585 955.021,854.591 955.043,854.598C955.065,854.605 955.087,854.612 955.109,854.619C955.13,854.627 955.152,854.634 955.174,854.642C955.196,854.65 955.217,854.659 955.239,854.667C955.26,854.676 955.282,854.685 955.304,854.694C955.375,854.724 955.446,854.755 955.516,854.786C955.587,854.817 955.657,854.849 955.727,854.882C955.797,854.914 955.866,854.947 955.935,854.981C956.004,855.015 956.072,855.049 956.14,855.084C956.208,855.119 956.276,855.154 956.343,855.19C956.411,855.226 956.477,855.263 956.544,855.3C956.61,855.337 956.676,855.375 956.742,855.414C956.807,855.452 956.872,855.491 956.937,855.53C957.002,855.57 957.066,855.61 957.13,855.65C957.194,855.691 957.257,855.732 957.32,855.773C957.383,855.815 957.445,855.857 957.507,855.9C957.569,855.943 957.631,855.986 957.692,856.03C957.753,856.073 957.814,856.118 957.874,856.163C957.934,856.207 957.994,856.253 958.053,856.299C958.113,856.344 958.172,856.391 958.23,856.438C958.288,856.484 958.346,856.532 958.403,856.58C958.461,856.627 958.518,856.676 958.574,856.725C958.631,856.773 958.687,856.823 958.742,856.872C958.798,856.922 958.852,856.972 958.907,857.023C958.961,857.074 959.016,857.125 959.069,857.177C959.122,857.228 959.176,857.281 959.228,857.333C959.281,857.386 959.333,857.439 959.384,857.492C959.436,857.546 959.487,857.6 959.537,857.654C959.587,857.708 959.637,857.763 959.687,857.818C959.736,857.873 959.785,857.929 959.834,857.985C959.882,858.041 959.93,858.098 959.977,858.155C960.025,858.212 960.072,858.269 960.118,858.327C960.164,858.385 960.21,858.443 960.255,858.501C960.3,858.56 960.345,858.619 960.389,858.678C960.433,858.737 960.477,858.797 960.52,858.857C960.563,858.917 960.606,858.978 960.648,859.039C960.69,859.1 960.731,859.161 960.772,859.223C960.813,859.284 960.853,859.346 960.893,859.409C960.933,859.471 960.972,859.534 961.01,859.597C961.049,859.66 961.087,859.723 961.125,859.787C961.162,859.851 961.199,859.915 961.235,859.98C961.272,860.044 961.307,860.109 961.342,860.174C961.378,860.239 961.412,860.305 961.446,860.371C961.48,860.436 961.514,860.503 961.546,860.569C961.579,860.635 961.611,860.702 961.643,860.769C961.675,860.836 961.706,860.904 961.736,860.971C961.766,861.039 961.796,861.107 961.826,861.175C961.855,861.244 961.883,861.312 961.911,861.381C961.939,861.45 961.967,861.519 961.993,861.588C962.02,861.658 962.046,861.727 962.072,861.797C962.097,861.867 962.122,861.938 962.146,862.008C962.171,862.079 962.194,862.149 962.217,862.22C962.24,862.291 962.263,862.363 962.284,862.434C962.306,862.506 962.327,862.578 962.348,862.65C962.368,862.721 962.388,862.794 962.407,862.866C962.426,862.939 962.445,863.011 962.463,863.084C962.481,863.157 962.498,863.23 962.514,863.304C962.531,863.377 962.547,863.451 962.562,863.525C962.577,863.598 962.592,863.672 962.606,863.747C962.619,863.821 962.633,863.895 962.645,863.97C962.658,864.044 962.67,864.119 962.681,864.194C962.692,864.269 962.703,864.344 962.712,864.42C962.722,864.495 962.731,864.571 962.74,864.646C962.748,864.722 962.756,864.798 962.763,864.874C962.77,864.95 962.776,865.026 962.782,865.102C962.788,865.179 962.793,865.255 962.797,865.332C962.801,865.409 962.805,865.485 962.808,865.562C962.811,865.639 962.813,865.716 962.814,865.793C962.816,865.871 962.816,865.948 962.816,866.025C962.816,866.103 962.816,866.18 962.814,866.257C962.813,866.335 962.811,866.412 962.808,866.489C962.805,866.566 962.801,866.642 962.797,866.719C962.793,866.796 962.788,866.872 962.782,866.948C962.776,867.025 962.77,867.101 962.763,867.177C962.756,867.253 962.748,867.329 962.74,867.405C962.731,867.48 962.722,867.556 962.712,867.631C962.703,867.706 962.692,867.782 962.681,867.857C962.67,867.932 962.658,868.006 962.645,868.081C962.633,868.156 962.619,868.23 962.606,868.304C962.592,868.378 962.577,868.452 962.562,868.526C962.547,868.6 962.531,868.673 962.514,868.747C962.498,868.82 962.481,868.893 962.463,868.966C962.445,869.039 962.426,869.112 962.407,869.184C962.388,869.257 962.368,869.329 962.348,869.401C962.327,869.473 962.306,869.545 962.284,869.616C962.263,869.688 962.24,869.759 962.217,869.83C962.194,869.901 962.171,869.972 962.146,870.042C962.122,870.113 962.097,870.183 962.072,870.253C962.046,870.323 962.02,870.393 961.993,870.462C961.967,870.531 961.939,870.6 961.911,870.669C961.883,870.738 961.855,870.807 961.826,870.875C961.796,870.943 961.766,871.011 961.736,871.079C961.706,871.147 961.675,871.214 961.643,871.281C961.611,871.348 961.579,871.415 961.546,871.481C961.514,871.548 961.48,871.614 961.446,871.68C961.412,871.745 961.378,871.811 961.342,871.876C961.307,871.941 961.272,872.006 961.235,872.07C961.199,872.135 961.162,872.199 961.125,872.263C961.087,872.326 961.049,872.39 961.01,872.453C960.972,872.516 960.933,872.579 960.893,872.641C960.853,872.704 960.813,872.766 960.772,872.827C960.731,872.889 960.69,872.95 960.648,873.011C960.606,873.072 960.563,873.132 960.52,873.192C960.477,873.253 960.433,873.312 960.389,873.372C960.345,873.431 960.3,873.49 960.255,873.549C960.21,873.607 960.164,873.665 960.118,873.723C960.072,873.781 960.025,873.838 959.977,873.895C959.93,873.952 959.882,874.008 959.834,874.064C959.785,874.12 959.736,874.176 959.687,874.231C959.637,874.287 959.587,874.341 959.537,874.396C959.487,874.45 959.436,874.504 959.384,874.557C959.333,874.611 959.281,874.664 959.228,874.716C959.176,874.769 959.122,874.821 959.069,874.873C959.016,874.924 958.961,874.976 958.907,875.026C958.852,875.077 958.798,875.127 958.742,875.177C958.687,875.227 958.631,875.276 958.574,875.325C958.518,875.374 958.461,875.422 958.403,875.47C958.346,875.518 958.288,875.565 958.23,875.612C958.172,875.659 958.113,875.705 958.053,875.751C957.994,875.797 957.934,875.842 957.874,875.887C957.814,875.932 957.753,875.976 957.692,876.02C957.631,876.064 957.569,876.107 957.507,876.15C957.445,876.192 957.383,876.235 957.32,876.276C957.257,876.318 957.194,876.359 957.13,876.4C957.066,876.44 957.002,876.48 956.937,876.52C956.872,876.559 956.807,876.598 956.742,876.636C956.676,876.675 956.61,876.712 956.544,876.75C956.477,876.787 956.411,876.824 956.343,876.86C956.276,876.896 956.208,876.931 956.14,876.966C956.072,877.001 956.004,877.035 955.935,877.069C955.866,877.103 955.797,877.136 955.727,877.169C955.657,877.201 955.587,877.233 955.516,877.264C955.446,877.296 955.375,877.326 955.304,877.357C955.298,877.359 955.293,877.361 955.287,877.363C955.282,877.366 955.277,877.368 955.271,877.37C955.266,877.372 955.26,877.374 955.255,877.376C955.25,877.379 955.244,877.381 955.239,877.383C955.233,877.385 955.228,877.387 955.223,877.389C955.217,877.391 955.212,877.393 955.206,877.395C955.201,877.397 955.195,877.4 955.19,877.402C955.185,877.404 955.179,877.406 955.174,877.408C955.168,877.409 955.163,877.411 955.158,877.413C955.152,877.415 955.147,877.417 955.141,877.419C955.136,877.421 955.13,877.423 955.125,877.425C955.119,877.427 955.114,877.429 955.109,877.43C955.103,877.432 955.098,877.434 955.092,877.436C955.087,877.438 955.081,877.439 955.076,877.441C955.07,877.443 955.065,877.445 955.059,877.446C955.054,877.448 955.049,877.45 955.043,877.451C955.038,877.453 955.032,877.455 955.027,877.456C955.021,877.458 955.016,877.46 955.01,877.461C955.005,877.463 954.999,877.465 954.994,877.466C954.988,877.468 954.983,877.469 954.977,877.471C954.972,877.472 954.966,877.474 954.961,877.475C954.955,877.477 954.95,877.478 954.944,877.48C954.939,877.481 954.933,877.483 954.928,877.484C954.922,877.486 954.917,877.487 954.911,877.488C954.906,877.49 954.901,877.491 954.895,877.492C954.89,877.494 954.884,877.495 954.879,877.497C954.873,877.498 954.868,877.499 954.862,877.5C954.857,877.502 954.851,877.503 954.846,877.504C954.84,877.505 954.834,877.507 954.829,877.508C954.823,877.509 954.818,877.51 954.812,877.512C954.807,877.513 954.801,877.514 954.796,877.515C954.79,877.516 954.785,877.517 954.779,877.518C954.774,877.52 954.768,877.521 954.763,877.522C954.757,877.523 954.752,877.524 954.746,877.525C954.741,877.526 954.735,877.527 954.73,877.528C954.724,877.529 954.719,877.53 954.713,877.531C954.708,877.532 954.702,877.533 954.697,877.534C954.691,877.535 954.686,877.536 954.68,877.536C954.675,877.537 954.669,877.538 954.664,877.539C954.658,877.54 954.652,877.541 954.647,877.542C954.641,877.542 954.636,877.543 954.63,877.544C954.625,877.545 954.619,877.546 954.614,877.546C954.608,877.547 954.603,877.548 954.597,877.549C954.592,877.549 954.586,877.55 954.581,877.551C954.575,877.551 954.57,877.552 954.564,877.553C954.558,877.553 954.553,877.554 954.547,877.555C954.542,877.555 954.536,877.556 954.531,877.556C954.525,877.557 954.52,877.558 954.514,877.558C954.509,877.559 954.503,877.559 954.498,877.56C954.492,877.56 954.487,877.561 954.481,877.561C954.476,877.562 954.47,877.562 954.465,877.563C954.459,877.563 954.453,877.563 954.448,877.564C954.442,877.564 954.437,877.565 954.431,877.565C954.426,877.565 954.42,877.566 954.415,877.566C954.409,877.566 954.404,877.567 954.398,877.567C954.393,877.567 954.387,877.568 954.382,877.568C954.376,877.568 954.371,877.568 954.365,877.569L954.349,877.569C954.343,877.57 954.337,877.57 954.332,877.57L954.315,877.57C954.31,877.571 954.304,877.571 954.299,877.571Z" />
    </g>
</svg>
