<?xml version="1.0" encoding="UTF-8" standalone="no"?>
<!DOCTYPE svg PUBLIC "-//W3C//DTD SVG 1.1//EN" "http://www.w3.org/Graphics/SVG/1.1/DTD/svg11.dtd">
<svg id="sound-off-icon" fill="#fff" width="100%" height="100%" viewBox="0 0 40 40" version="1.1" xmlns="http://www.w3.org/2000/svg" xmlns:xlink="http://www.w3.org/1999/xlink" xml:space="preserve" xmlns:serif="http://www.serif.com/"  style="fill-rule:evenodd;clip-rule:evenodd;stroke-linejoin:round;stroke-miterlimit:2;">
    <g transform="matrix(0.442895,0,0,0.442895,-397.129,-363.558)">
        <path d="M896.668,866.025L897.422,866.587L898.176,867.149L898.93,867.711L899.685,868.273L900.439,868.834L901.193,869.396L901.947,869.958L902.701,870.52L903.455,871.082L904.209,871.643L904.963,872.205L905.717,872.767L906.471,873.329L907.225,873.891L907.979,874.452L908.733,875.014L909.487,875.576L910.242,876.138L910.996,876.7L911.75,877.261L912.504,877.823L913.258,878.385L914.012,878.947L914.766,879.509L915.52,880.07L916.274,880.632L917.028,881.194L917.782,881.756L918.536,882.318L919.29,882.879L920.044,883.441L920.798,884.003L921.553,884.565L922.307,885.127L923.061,885.688L923.815,886.25L924.569,886.812L925.323,887.374L926.077,887.936L926.831,888.497L927.585,889.059L928.339,889.621L929.093,890.183L929.847,890.745L930.601,891.306L931.355,891.868L932.109,892.43L932.864,892.992L933.618,893.554L934.372,894.115L935.126,894.677L935.88,895.239L936.634,895.801L937.388,896.363L938.142,896.924L938.896,897.486L939.65,898.048L940.404,898.61L941.158,899.172L941.912,899.733L942.666,900.295L943.421,900.857L944.175,901.419L944.929,901.981L944.929,830.071L944.175,830.633L943.421,831.195L942.666,831.756L941.912,832.318L941.158,832.88L940.404,833.442L939.65,834.003L938.896,834.565L938.142,835.127L937.388,835.689L936.634,836.251L935.88,836.812L935.126,837.374L934.372,837.936L933.618,838.498L932.864,839.06L932.109,839.621L931.355,840.183L930.601,840.745L929.847,841.307L929.093,841.868L928.339,842.43L927.585,842.992L926.831,843.554L926.077,844.116L925.323,844.677L924.569,845.239L923.815,845.801L923.061,846.363L922.307,846.925L921.553,847.486L920.798,848.048L920.044,848.61L919.29,849.172L918.536,849.734L917.782,850.295L917.028,850.857L916.274,851.419L915.52,851.981L914.766,852.542L914.012,853.104L913.258,853.666L912.504,854.228L911.75,854.79L910.996,855.351L910.242,855.913L909.487,856.475L908.733,857.037L907.979,857.599L907.225,858.16L906.471,858.722L905.717,859.284L904.963,859.846L904.209,860.408L903.455,860.969L902.701,861.531L901.947,862.093L901.193,862.655L900.439,863.216L899.685,863.778L898.93,864.34L898.176,864.902L897.422,865.464L896.668,866.025Z" />
        <rect x="896.668" y="850.455" width="21.141" height="31.141" />
    </g>
    <g transform="matrix(0.442413,0,0,0.442413,9.98748,11.1517)">
        <g transform="matrix(1,0,0,1,-1993.47,-846.026)">
            <path d="M2034.16,879.647L2034.08,879.563L2034,879.479L2033.91,879.396L2033.83,879.312L2033.74,879.228L2033.66,879.144L2033.58,879.06L2033.49,878.976L2033.41,878.892L2033.32,878.808L2033.16,878.64L2033.07,878.556L2032.99,878.472L2032.91,878.389L2032.82,878.305L2032.74,878.221L2032.65,878.137L2032.57,878.053L2032.49,877.969L2032.4,877.885L2032.32,877.801L2032.23,877.717L2032.15,877.633L2032.07,877.549L2031.98,877.466L2031.9,877.382L2031.81,877.298L2031.73,877.214L2031.65,877.13L2031.56,877.046L2031.48,876.962L2031.39,876.878L2031.31,876.794L2031.23,876.71L2031.14,876.626L2031.06,876.542L2030.98,876.459L2030.89,876.375L2030.81,876.291L2030.72,876.207L2030.56,876.039L2030.47,875.955L2030.39,875.871L2030.3,875.787L2030.22,875.703L2030.14,875.619L2030.05,875.535L2029.97,875.452L2029.88,875.368L2029.8,875.284L2029.72,875.2L2029.63,875.116L2029.55,875.032L2029.47,874.948L2029.38,874.864L2029.3,874.78L2029.21,874.696L2029.05,874.528L2028.96,874.445L2028.88,874.361L2028.79,874.277L2029.14,873.935L2029.48,873.593L2029.82,873.251L2030.16,872.91L2030.84,872.226L2031.19,871.884L2031.53,871.543L2031.87,871.201L2032.21,870.859L2032.55,870.517L2032.9,870.175L2033.24,869.834L2033.58,869.492L2033.92,869.15L2034.26,868.808L2034.6,868.467L2034.95,868.125L2035.29,867.783L2035.63,867.441L2035.97,867.1L2036.31,866.758L2036.65,866.416L2037,866.074L2037.34,865.732L2037.68,865.391L2038.02,865.049L2038.36,864.707L2038.71,864.365L2039.05,864.024L2039.73,863.34L2040.07,862.998L2040.41,862.657L2040.76,862.315L2041.1,861.973L2041.44,861.631L2041.78,861.289L2042.12,860.948L2042.46,860.606L2042.81,860.264L2043.15,859.922L2043.49,859.581L2043.83,859.239L2044.17,858.897L2044.52,858.555L2044.86,858.214L2045.2,857.872L2045.54,857.53L2045.88,857.188L2046.22,856.846L2046.57,856.505L2046.91,856.163L2047.25,855.821L2047.59,855.479L2047.93,855.138L2048.27,854.796L2048.62,854.454L2048.96,854.112L2049.3,853.771L2049.64,853.429L2049.98,853.087L2050.33,852.745L2050.67,852.404L2050.75,852.487L2050.83,852.571L2050.92,852.655L2051,852.739L2051.09,852.823L2051.17,852.907L2051.25,852.991L2051.34,853.075L2051.42,853.159L2051.51,853.243L2051.59,853.326L2051.67,853.41L2051.76,853.494L2051.84,853.578L2051.93,853.662L2052.01,853.746L2052.09,853.83L2052.18,853.914L2052.26,853.998L2052.35,854.082L2052.43,854.166L2052.51,854.249L2052.6,854.333L2052.68,854.417L2052.76,854.501L2052.85,854.585L2052.93,854.669L2053.02,854.753L2053.1,854.837L2053.18,854.921L2053.27,855.005L2053.35,855.089L2053.44,855.172L2053.52,855.256L2053.6,855.34L2053.69,855.424L2053.77,855.508L2053.86,855.592L2053.94,855.676L2054.02,855.76L2054.11,855.844L2054.19,855.928L2054.28,856.011L2054.36,856.095L2054.44,856.179L2054.53,856.263L2054.61,856.347L2054.69,856.431L2054.78,856.515L2054.86,856.599L2054.95,856.683L2055.03,856.767L2055.11,856.851L2055.2,856.934L2055.28,857.018L2055.37,857.102L2055.45,857.186L2055.53,857.27L2055.62,857.354L2055.7,857.438L2055.79,857.522L2055.87,857.606L2055.95,857.69L2056.04,857.773L2055.7,858.115L2055.35,858.457L2055.01,858.799L2054.67,859.141L2054.33,859.482L2053.99,859.824L2053.65,860.166L2053.3,860.508L2052.96,860.85L2052.62,861.191L2052.28,861.533L2051.94,861.875L2051.59,862.217L2051.25,862.558L2050.91,862.9L2050.57,863.242L2050.23,863.584L2049.89,863.926L2049.54,864.267L2049.2,864.609L2048.86,864.951L2048.52,865.293L2048.18,865.634L2047.83,865.976L2047.15,866.66L2046.81,867.002L2046.47,867.343L2046.13,867.685L2045.78,868.027L2045.44,868.369L2045.1,868.71L2044.42,869.394L2044.08,869.736L2043.73,870.078L2043.39,870.419L2043.05,870.761L2042.71,871.103L2042.37,871.445L2042.02,871.786L2041.68,872.128L2041.34,872.47L2041,872.812L2040.66,873.154L2040.32,873.495L2039.97,873.837L2039.63,874.179L2039.29,874.521L2038.95,874.862L2038.61,875.204L2038.27,875.546L2037.92,875.888L2037.58,876.23L2037.24,876.571L2036.9,876.913L2036.56,877.255L2036.21,877.597L2035.87,877.938L2035.53,878.28L2035.19,878.622L2034.85,878.964L2034.51,879.306L2034.16,879.647Z"/>
        </g>
        <g transform="matrix(1,0,0,1,-1993.47,-846.026)">
            <path d="M2050.67,879.647L2050.33,879.306L2049.98,878.964L2049.64,878.622L2049.3,878.28L2048.96,877.938L2048.62,877.597L2048.27,877.255L2047.93,876.913L2047.59,876.571L2047.25,876.23L2046.91,875.888L2046.57,875.546L2046.22,875.204L2045.88,874.862L2045.54,874.521L2045.2,874.179L2044.86,873.837L2044.52,873.495L2044.17,873.154L2043.83,872.812L2043.49,872.47L2042.81,871.786L2042.46,871.445L2042.12,871.103L2041.78,870.761L2041.44,870.419L2041.1,870.078L2040.76,869.736L2040.41,869.394L2040.07,869.052L2039.73,868.71L2039.39,868.369L2039.05,868.027L2038.71,867.685L2038.36,867.343L2038.02,867.002L2037.68,866.66L2037.34,866.318L2037,865.976L2036.65,865.634L2036.31,865.293L2035.97,864.951L2035.29,864.267L2034.95,863.926L2034.6,863.584L2033.92,862.9L2033.58,862.558L2033.24,862.217L2032.9,861.875L2032.55,861.533L2032.21,861.191L2031.87,860.85L2031.53,860.508L2031.19,860.166L2030.84,859.824L2030.5,859.482L2030.16,859.141L2029.82,858.799L2029.48,858.457L2029.14,858.115L2028.79,857.773L2028.88,857.69L2028.96,857.606L2029.05,857.522L2029.21,857.354L2029.3,857.27L2029.38,857.186L2029.47,857.102L2029.55,857.018L2029.63,856.934L2029.72,856.851L2029.8,856.767L2029.88,856.683L2029.97,856.599L2030.05,856.515L2030.14,856.431L2030.22,856.347L2030.3,856.263L2030.39,856.179L2030.47,856.095L2030.56,856.011L2030.64,855.928L2030.72,855.844L2030.81,855.76L2030.89,855.676L2030.98,855.592L2031.06,855.508L2031.14,855.424L2031.23,855.34L2031.31,855.256L2031.39,855.172L2031.48,855.089L2031.56,855.005L2031.65,854.921L2031.73,854.837L2031.81,854.753L2031.9,854.669L2031.98,854.585L2032.07,854.501L2032.15,854.417L2032.23,854.333L2032.32,854.249L2032.4,854.166L2032.49,854.082L2032.57,853.998L2032.65,853.914L2032.74,853.83L2032.82,853.746L2032.91,853.662L2033.07,853.494L2033.16,853.41L2033.24,853.326L2033.32,853.243L2033.41,853.159L2033.49,853.075L2033.58,852.991L2033.66,852.907L2033.74,852.823L2033.83,852.739L2033.91,852.655L2034,852.571L2034.08,852.487L2034.16,852.404L2034.51,852.745L2034.85,853.087L2035.19,853.429L2035.53,853.771L2035.87,854.112L2036.21,854.454L2036.56,854.796L2036.9,855.138L2037.24,855.479L2037.58,855.821L2037.92,856.163L2038.27,856.505L2038.61,856.846L2038.95,857.188L2039.29,857.53L2039.97,858.214L2040.32,858.555L2040.66,858.897L2041,859.239L2041.34,859.581L2041.68,859.922L2042.02,860.264L2042.37,860.606L2042.71,860.948L2043.05,861.289L2043.39,861.631L2043.73,861.973L2044.08,862.315L2044.42,862.657L2044.76,862.998L2045.1,863.34L2045.44,863.682L2045.78,864.024L2046.13,864.365L2046.47,864.707L2046.81,865.049L2047.15,865.391L2047.49,865.732L2047.83,866.074L2048.18,866.416L2048.52,866.758L2048.86,867.1L2049.2,867.441L2049.54,867.783L2049.89,868.125L2050.57,868.808L2050.91,869.15L2051.25,869.492L2051.59,869.834L2051.94,870.175L2052.28,870.517L2052.62,870.859L2052.96,871.201L2053.3,871.543L2053.65,871.884L2053.99,872.226L2054.33,872.568L2054.67,872.91L2055.01,873.251L2055.35,873.593L2055.7,873.935L2056.04,874.277L2055.95,874.361L2055.87,874.445L2055.79,874.528L2055.7,874.612L2055.62,874.696L2055.53,874.78L2055.45,874.864L2055.37,874.948L2055.28,875.032L2055.2,875.116L2055.11,875.2L2054.95,875.368L2054.86,875.452L2054.78,875.535L2054.69,875.619L2054.61,875.703L2054.53,875.787L2054.44,875.871L2054.36,875.955L2054.28,876.039L2054.19,876.123L2054.11,876.207L2054.02,876.291L2053.94,876.375L2053.86,876.459L2053.77,876.542L2053.69,876.626L2053.6,876.71L2053.44,876.878L2053.35,876.962L2053.27,877.046L2053.18,877.13L2053.1,877.214L2053.02,877.298L2052.93,877.382L2052.85,877.466L2052.76,877.549L2052.68,877.633L2052.6,877.717L2052.51,877.801L2052.43,877.885L2052.35,877.969L2052.26,878.053L2052.18,878.137L2052.09,878.221L2052.01,878.305L2051.93,878.389L2051.84,878.472L2051.76,878.556L2051.67,878.64L2051.59,878.724L2051.51,878.808L2051.42,878.892L2051.34,878.976L2051.25,879.06L2051.17,879.144L2051.09,879.228L2051,879.312L2050.92,879.396L2050.83,879.479L2050.75,879.563L2050.67,879.647Z"/>
        </g>
    </g>
</svg>
