<?xml version="1.0" encoding="UTF-8"?><svg id="Ebene_2" xmlns="http://www.w3.org/2000/svg" width="32.69" height="40.26" viewBox="0 0 32.69 40.26"><g id="Ebene_1-2"><path d="M27.99,32.74c-1.3-1.87-3.47-4.23-3.3-6.75.03-2.95,2.76-4.14,5.2-4.79.38-.19.88-.35.92-.86-.36-.91-2.34-1.11-3.24-1.67-3.8-1.79-3.39-5.68-1.08-8.85,1.78-2.85,4.08-5.62,5.75-8.39-2.78,2.37-5.17,5.7-7.8,8.18-2.06,2.04-5.27,1.72-6.2-1.23-.65-1.86-.5-4.12-.68-6.05-.1-1.15-.36-2.31-.71-2.33-.35-.06-.68,1.06-.82,2.27-.42,2.66.18,6.11-2.04,8.03-4.62,2.52-6.97-3.91-9.99-6.38C2.88,2.82,1.57,1.53.5.51-.28-.23-.03.17.43.85c2.48,3.72,5.61,7.41,7.81,11.02,2.2,3.78-.82,5.89-3.81,7.62-1.33.81-1.73,1.41-.08,1.98,6.39,1.75,4.94,6.71,1.48,10.73-1.74,2.46-4.16,5.49-5.43,7.97,2.64-2.17,5.5-5.17,7.73-7.54,1.33-1.36,3.4-3.31,5.39-2.16,2.16,1.48,1.94,5.02,3.11,7.05.2.06.38-.66.59-1.54.94-4.47,2.49-8.1,7.39-3.92,2.64,2.31,5.75,6.25,8.08,8.19-1.12-2.23-3.07-5.07-4.6-7.37l-.11-.15Z" style="fill:#000; stroke-width:0px;"/></g></svg>