<?xml version="1.0" encoding="UTF-8"?><svg id="Ebene_2" xmlns="http://www.w3.org/2000/svg" width="45.32" height="25.635" viewBox="0 0 90.64 51.27"><g id="Ebene_1-2"><path d="M89.67,23.34L62.23,6.64c-.44-.26-.77-.94-.5-1.47.42-.83.83-1.31,1.41-2.02.44-.54.87-1.09,1.27-1.66.12-.18.27-.34.41-.5.03-.04.07-.07.1-.11.12-.17.15-.32.06-.43-.09-.11-.28-.16-.44-.09-.24.1-.47.23-.67.39-.72.57-1.32,1.26-1.93,1.94-.37.41-.72.85-1.16,1.18-.39.3-.83.5-1.33.54-.71.07-1.37-.07-2.02-.35-.88-.38-1.78-.72-2.64-1.13-.25-.12-.48-.25-.68-.44-.21-.2-.34-.45-.34-.75,0-.12,0-.24-.03-.36-.02-.12-.09-.2-.22-.23-.11-.02-.19.05-.25.13-.03.04-.05.07-.07.11-.16.41-.5.47-.88.45-.69-.04-1.36-.21-2.03-.33-.76-.13-1.53-.27-2.29-.4-.54-.09-1.07-.18-1.56-.44-.19-.1-.37-.22-.51-.39-.03-.04-.08-.08-.12-.12-.25-.22-.37-.22-.6.01-.46.46-1.01.73-1.64.84-1.25.22-2.51.44-3.76.68-.4.08-.81.13-1.22.14-.37.01-.65-.11-.8-.47-.02-.05-.05-.1-.09-.14-.14-.15-.34-.1-.4.1-.02.05-.03.11-.02.16.03.66-.34,1.05-.87,1.33-.64.34-1.31.61-1.97.88-.51.21-1.02.45-1.55.59-1.04.27-2.01.18-2.84-.59-.42-.39-.79-.83-1.18-1.26-.56-.63-1.14-1.24-1.8-1.77-.21-.17-.43-.31-.71-.35-.16-.02-.29,0-.38.15-.08.14-.01.26.08.36.87,1.02,1.62,2.15,2.53,3.15.49.54,1.22,1.19.92,1.93-.22.96-28.64,17.11-28.64,17.11C.32,23.32,0,23.85,0,24.44c0,.59.29,1.12.78,1.41l25.86,16.41c.6.57.49,1.35.3,1.56-.6.67-.82.93-1.5,1.51-.15.13-.3.26-.45.4-.13.13-.2.29-.18.48.02.23.16.33.39.29.28-.05.49-.22.72-.37.65-.43,1.24-.94,1.91-1.32.47-.27.96-.48,1.51-.51.49-.02.95.12,1.41.28.72.25,1.36.65,2.02,1.01,1.01.55,2,1.15,2.97,1.77.24.15.47.31.69.49.47.39.68.9.75,1.49.03.25.11.35.24.36.13,0,.24-.11.3-.33.08-.32.21-.59.54-.73.19-.08.37-.07.56-.03.62.15,1.24.32,1.86.49.61.17,1.22.33,1.83.49.49.13.97.26,1.42.5.52.27.88.71,1.22,1.18h.7c.31-.48.69-.89,1.2-1.17.34-.18.72-.3,1.09-.4.49-.14.98-.28,1.47-.41.61-.16,1.21-.35,1.83-.49.23-.05.45-.1.68-.17.46-.15,1.02.07,1.12.61.02.11.07.21.12.31.11.2.3.2.41,0,.04-.08.06-.16.07-.25.04-.64.34-1.13.85-1.51.71-.53,1.48-.98,2.24-1.44.91-.54,1.82-1.08,2.77-1.54.59-.29,1.21-.51,1.88-.51.5,0,.96.16,1.39.39.66.35,1.24.84,1.86,1.26.22.15.44.3.66.45.05.03.11.05.17.07.16.04.32.1.45-.05.1-.11.09-.42,0-.57-.04-.07-.1-.13-.17-.18-.67-.53-1.28-1.11-1.88-1.71-.3-.29-.7-.54-.72-.96-.02-.35.12-.73.51-1.01l25.88-15.19c.59-.38.93-1.03.92-1.73,0-.7-.37-1.34-.97-1.71ZM33.51,6.06c.22-.41.6-.66.99-.89.31-.19.64-.33.89-.35.46,0,.66.16.7.51.03.22,0,.43-.13.62-.33.46-.69.88-1.14,1.22-.23.17-.48.28-.78.21-.53-.13-.87-.7-.53-1.32ZM31.83,15.55c.27-.77.57-1.53.94-2.25.18-.34.41-.63.7-.88.41-.36.91-.35,1.33,0,.39.32.69.72.99,1.12.65.89,1.29,1.79,1.79,2.78.24.46.45.94.6,1.44.15.53.08,1.06-.11,1.58-.28.76-.66,1.45-1.19,2.06-.5.57-1.09.97-1.83,1.17-.83.22-1.68.35-2.54.44-.37.04-.74,0-1.07-.16-.55-.26-.85-.71-.9-1.32,0-.1,0-.2,0-.3.03-.51.09-1.01.18-1.51.11-.6.26-1.19.39-1.78.18-.81.45-1.6.72-2.38ZM31.41,12.48c-.39,1.21-.89,2.39-1.26,3.61-.33,1.08-.65,2.16-.87,3.28-.18.91-.4,1.82-.73,2.69-.21.55-.58.96-1.07,1.28-.35.23-.73.35-1.14.35-.48,0-.87-.22-1.17-.58-.42-.49-.61-1.07-.66-1.72-.05-.6,0-1.2.05-1.79.03-.38.14-.76.23-1.14.09-.37.2-.74.28-1.11.12-.53.32-1.02.53-1.52.35-.86.77-1.68,1.18-2.51.42-.85.91-1.67,1.6-2.33.48-.46,1.03-.85,1.68-1.04.61-.18,1.08-.07,1.42.42.17.24.23.51.21.78.01.49-.15.91-.28,1.34ZM1.5,24.46c0-.07.05-.1.08-.12L28.66,8.33c-.11.13-.21.26-.32.38-.8.93-1.58,1.87-2.32,2.85-.35.46-.71.9-1.19,1.22-.39.27-.82.39-1.29.27-.14-.04-.3-.08-.41.08-.07.11-.02.31.11.46.12.13.27.23.42.32.62.37.68.62.52,1.4-.17.81-.39,1.6-.64,2.39-.12.38-.35.69-.76.82-.1.03-.2.07-.28.14-.1.08-.09.17.01.24.02.01.04.03.06.03.43.19.51.56.47.97-.08.74-.2,1.48-.36,2.21-.11.5-.21,1.01-.36,1.5-.2.63-.6,1.05-1.26,1.19-.23.05-.45.13-.66.23-.19.1-.25.21-.24.41.01.16.13.29.31.35.24.07.48.1.72.11.31,0,.56.15.77.38.31.34.48.75.57,1.19.17.79.24,1.6.36,2.4.1.66.23,1.31.37,1.96.18.84.38,1.69.48,2.54.07.64-.09,1.2-.62,1.62-.23.19-.2.43.07.57.15.08.31.09.47.1.66.02,1.1.38,1.48.86.63.81,1.16,1.68,1.7,2.54.12.18.23.37.34.56L1.56,24.56s-.06-.04-.06-.11ZM30.47,39.1c-.56.93-1.62.94-2.29.31-.33-.32-.56-.71-.8-1.1-.61-.99-1.11-2.04-1.53-3.13-.31-.8-.63-1.6-.82-2.44-.06-.29-.13-.58-.16-.88-.06-.53-.17-1.06-.12-1.6.05-.51.12-1.01.29-1.49.14-.4.33-.78.61-1.09.29-.32.62-.6,1.04-.71.68-.18,1.27.07,1.59.8.21.48.32.99.47,1.48.18.61.29,1.23.41,1.84.22,1.09.53,2.15.84,3.21.19.67.37,1.34.51,2.03.11.52.2,1.06.18,1.52,0,.49-.02.89-.24,1.25ZM30.83,31.28c-.15-.71-.26-1.43-.35-2.15-.05-.4-.11-.8-.1-1.21,0-.16,0-.32,0-.48.01-1.02.63-1.82,1.59-2.13.99-.31,1.99-.32,3.01-.22.47.05.9.2,1.3.41.46.24.77.64,1.02,1.09.43.77.68,1.6.89,2.44.11.46.02.92-.13,1.37-.3.89-.81,1.64-1.37,2.38-.4.52-.76,1.08-1.17,1.59-.47.59-.93,1.19-1.48,1.7-.16.15-.33.28-.52.38-.22.13-.44.1-.65-.02-.23-.14-.42-.33-.55-.57-.38-.69-.67-1.42-.9-2.18-.24-.8-.42-1.61-.59-2.42ZM34.2,44.15c-.21.36-.54.46-.96.29-.4-.16-.72-.43-1.03-.72-.22-.2-.44-.39-.59-.65-.22-.38-.1-.83.29-1.02.16-.08.33-.15.53-.13.56.05,1.01.31,1.38.73.26.3.47.62.48,1.03,0,.16,0,.32-.09.47ZM44.61,45.51c-.08.39-.07.78-.16,1.17-.15.65-.6.86-1.21.78-.71-.1-1.39-.31-2.03-.67-.51-.29-1.06-.51-1.54-.86-.69-.5-1.35-1.02-1.98-1.59-1-.9-1.8-1.95-2.52-3.07-.26-.41-.49-.86-.58-1.35-.08-.46-.06-.91.13-1.35.27-.67.7-1.23,1.18-1.75.63-.69,1.24-1.4,1.9-2.07.7-.72,1.45-1.4,2.33-1.89.85-.47,1.71-.46,2.54.06.71.45,1.14,1.11,1.43,1.88.19.53.26,1.08.35,1.63.14.94.06,1.89.1,2.84,0,.72-.04,1.44,0,2.16.06.89.11,1.77.09,2.66-.01.48.05.96-.04,1.43ZM44.67,8.01c-.05.66-.04,1.49-.1,2.32-.06.73-.11,1.46-.23,2.18-.17.95-.55,1.8-1.38,2.36-1.11.76-2.28.75-3.47.18-.67-.32-1.19-.82-1.68-1.36-.39-.43-.82-.82-1.18-1.27-.5-.62-.98-1.24-1.32-1.97-.29-.63-.18-1.19.23-1.7.51-.64,1.06-1.26,1.65-1.82.91-.88,1.9-1.67,2.98-2.33.6-.36,1.22-.67,1.91-.85,1.03-.27,1.94.08,2.33,1.16.17.47.25.95.25,1.45,0,.49,0,.99,0,1.65ZM63.68,12.35c.48.78.84,1.62,1.25,2.44.28.55.52,1.13.73,1.71.17.47.3.95.42,1.43.1.43.22.86.29,1.3.08.5.18.99.16,1.52.04.52-.03,1.04-.23,1.55-.2.51-.51.93-1,1.2-.36.2-.75.22-1.13.1-.79-.25-1.38-.74-1.7-1.52-.22-.53-.35-1.08-.49-1.64-.25-.98-.42-1.97-.68-2.95-.41-1.52-.96-2.98-1.5-4.46-.2-.54-.38-1.08-.48-1.64-.1-.57.11-1.18.66-1.43.34-.15.69-.12,1.02,0,1.19.45,2.03,1.31,2.68,2.38ZM59.56,16.75c.26.83.47,1.68.63,2.53.13.69.27,1.38.28,2.28.01.37-.18.84-.66,1.16-.35.23-.76.32-1.18.28-.72-.06-1.44-.15-2.15-.33-.6-.16-1.17-.37-1.69-.71-.59-.38-.97-.93-1.32-1.51-.32-.53-.54-1.09-.68-1.69-.09-.41-.04-.82.11-1.22.45-1.22,1.1-2.33,1.86-3.38.34-.47.68-.93,1.05-1.37.13-.15.27-.29.43-.41.43-.32.9-.28,1.3.08.45.41.73.94.99,1.48.43.91.74,1.86,1.04,2.82ZM55.48,4.82c.37-.01.67.17.97.34.39.22.75.49.99.88.23.37.23.73,0,1.02-.26.34-.7.42-1.09.21-.15-.08-.29-.18-.42-.3-.34-.31-.65-.65-.91-1.03-.11-.17-.15-.35-.15-.55,0-.39.21-.59.6-.58ZM46.32,8.38c-.04-.35,0-.7,0-1.08-.05-.6,0-1.23.11-1.85.12-.64.35-1.24.98-1.59.49-.27,1.01-.25,1.52-.11,1.08.3,2.01.88,2.9,1.55.88.66,1.7,1.39,2.46,2.18.42.44.83.88,1.19,1.37.38.51.44,1.04.18,1.63-.25.55-.6,1.02-.95,1.5-.42.57-.93,1.06-1.4,1.58-.38.42-.76.84-1.23,1.16-.51.35-1.05.64-1.67.71-.96.11-1.87-.08-2.62-.72-.42-.36-.7-.86-.9-1.38-.21-.56-.27-1.15-.35-1.74-.16-1.06-.1-2.14-.21-3.2ZM56.11,40.65c-.42.86-.98,1.62-1.58,2.35-.72.87-1.55,1.62-2.42,2.34-.84.7-1.8,1.19-2.78,1.65-.54.26-1.12.42-1.72.46-.7.05-.94-.33-1.06-.9-.14-.66-.12-1.32-.13-1.99,0-.82,0-1.64,0-2.46.04-1.14,0-2.27.04-3.41.02-.78,0-1.56.1-2.34.1-.85.26-1.69.75-2.42.4-.59.89-1.09,1.59-1.34.45-.16.91-.16,1.37,0,.71.24,1.28.72,1.85,1.18.84.68,1.56,1.49,2.28,2.3.42.47.87.91,1.24,1.41.28.38.51.79.66,1.24.2.66.11,1.29-.18,1.9ZM59.22,43.29c-.44.57-1.04.89-1.71,1.13-.55.19-.84-.28-.84-.75.04-.4.26-.74.53-1.05.28-.32.62-.55,1.03-.66.46-.12,1.09.07,1.22.58.08.31-.07.54-.24.76ZM59.63,33.55c-.27.87-.6,1.72-1.09,2.49-.13.2-.29.35-.5.45-.19.09-.38.09-.57-.01-.39-.21-.71-.51-1-.85-.82-.94-1.54-1.96-2.27-2.97-.4-.56-.78-1.13-1.07-1.76-.37-.8-.43-1.6-.14-2.44.19-.56.37-1.12.64-1.66.23-.45.49-.86.91-1.15.42-.29.88-.47,1.39-.55.5-.07,1-.09,1.49-.06.66.04,1.32.11,1.94.39.63.28,1,.76,1.19,1.41.09.3.12.6.1.84.01.62-.09,1.16-.17,1.71-.04.3-.08.6-.13.9-.19,1.09-.4,2.18-.73,3.24ZM60.54,39.13c-.17-.25-.23-.54-.25-.85-.04-.88.1-1.74.31-2.6.23-.94.54-1.86.78-2.8.18-.7.36-1.39.51-2.1.15-.72.29-1.44.52-2.15.13-.42.22-.85.47-1.22.21-.31.52-.48.89-.51.71-.07,1.18.33,1.61.81.38.43.57.95.71,1.5.12.45.1.91.12,1.37.04.81-.11,1.59-.32,2.36-.45,1.65-1.1,3.23-1.92,4.73-.3.55-.61,1.08-1.03,1.54-.33.35-.7.59-1.21.59-.55,0-.91-.28-1.19-.7ZM88.92,25.51l-24.75,14.53c.06-.1.12-.2.18-.3.4-.62.81-1.25,1.23-1.86.2-.3.43-.57.7-.82.29-.27.64-.36,1.02-.39.17-.02.34-.02.5-.1.3-.14.34-.4.06-.59-.26-.18-.42-.42-.52-.71-.03-.08-.05-.16-.05-.24-.04-.62.03-1.24.18-1.85.15-.62.26-1.25.39-1.87.17-.77.28-1.55.4-2.32.06-.36.11-.72.16-1.08.08-.56.23-1.11.59-1.57.2-.25.45-.42.79-.44.23,0,.46-.04.69-.09s.37-.19.39-.37c.01-.19-.08-.31-.3-.41-.23-.1-.47-.18-.72-.25-.54-.14-.89-.51-1.09-1.01-.25-.63-.36-1.29-.49-1.95-.11-.57-.19-1.15-.27-1.72-.02-.14-.03-.27-.03-.41,0-.34.13-.59.43-.74.07-.04.16-.07.15-.17,0-.09-.09-.14-.16-.17-.11-.05-.22-.09-.32-.14-.29-.15-.46-.39-.57-.69-.18-.5-.28-1.01-.44-1.52-.13-.42-.22-.84-.3-1.28-.08-.42.03-.74.4-.97.16-.1.32-.22.48-.33.11-.08.19-.19.22-.32.05-.22-.06-.34-.28-.31-.14.02-.28.05-.43.06-.51.06-.89-.21-1.26-.5-.39-.3-.69-.69-.98-1.08-.66-.9-1.36-1.77-2.09-2.61-.06-.07-.11-.14-.17-.21l26.23,15.92c.23.14.25.36.25.45,0,.09-.02.31-.22.44Z" style="fill:#000; stroke-width:0px;"/></g></svg>